# Blender v2.79 (sub 0) OBJ File: 'copiaVilla.blend'
# www.blender.org
o Item4_Cube.173
v 0.043488 0.395499 -0.054140
v 0.046248 0.405312 -0.422121
v 0.055648 0.497367 -0.422121
v 0.051926 0.487554 -0.054140
v -0.005309 0.395499 -0.054140
v -0.003667 0.487554 -0.054140
v -0.019137 0.497367 -0.422121
v -0.020967 0.405312 -0.422121
v 0.037984 0.122233 -0.067405
v 0.035649 0.137595 -0.422121
v 0.035649 0.226634 -0.422121
v 0.037984 0.211272 -0.067405
v 0.043998 0.124400 0.207509
v -0.008281 0.124625 0.207829
v -0.013993 0.122233 -0.067405
v -0.017522 0.211272 -0.067405
v -0.017438 0.226634 -0.422121
v -0.013909 0.137595 -0.422121
v -0.011537 0.214226 0.189311
v 0.099299 0.709632 -0.345250
v 0.098334 0.705755 -0.471424
v 0.060292 0.717579 -0.409196
v 0.092917 0.477321 -0.346763
v 0.093293 0.497718 -0.471295
v -0.046786 0.711750 -0.470807
v -0.045819 0.715634 -0.344381
v -0.005983 0.720881 -0.409387
v 0.091380 0.705824 -0.478445
v -0.039813 0.711250 -0.477664
v 0.026885 0.720232 -0.438959
v 0.038546 0.226634 0.681823
v -0.017438 0.226634 0.681823
v -0.013909 0.137595 0.681823
v 0.038546 0.137595 0.681823
v 0.047948 0.497367 0.681824
v -0.019136 0.497367 0.681824
v -0.020967 0.405312 0.681823
v 0.038546 0.405312 0.681823
v -0.062043 0.000000 -0.117624
v -0.004506 0.000000 -0.112297
v -0.021020 0.036384 -0.122064
v -0.035337 0.036384 -0.122064
v -0.035323 0.047166 -0.236968
v -0.030921 0.578807 -0.115524
v -0.030921 0.595080 -0.147936
v -0.030921 0.601208 -0.182187
v -0.030921 0.591566 -0.216200
v -0.030921 0.578807 -0.236968
v 0.025985 0.000000 -0.236968
v -0.014337 0.000000 -0.253565
v -0.023294 0.034411 -0.236968
v 0.009334 0.030868 -0.236968
v 0.025985 0.000000 -0.122501
v 0.009322 0.029304 -0.122064
v -0.046420 0.000000 -0.253711
v -0.057836 0.000000 0.121980
v -0.018325 0.000000 0.122474
v -0.029918 0.035295 0.110709
v -0.046796 0.037961 0.110709
v 0.020713 0.591879 0.089571
v -0.023929 0.592844 0.088184
v -0.024278 0.578267 0.114513
v 0.020375 0.577636 0.114753
v 0.010543 0.000000 -0.016081
v -0.027084 0.000000 -0.017533
v -0.030593 0.022881 -0.004131
v -0.002126 0.025390 -0.004131
v 0.010543 0.000000 0.122289
v -0.002139 0.023828 0.110709
v -0.057836 0.000000 -0.012799
v -0.046783 0.032324 -0.004131
v -0.005309 0.395499 0.313842
v 0.045583 0.395499 0.313842
v 0.054021 0.487554 0.313842
v -0.003665 0.487554 0.313842
v -0.017438 0.222136 0.187790
v -0.013909 0.133296 0.209633
v 0.038363 0.222136 0.187790
v -0.058446 0.058900 -0.472264
v -0.052102 0.245448 -0.469249
v -0.045055 0.246550 -0.476053
v -0.051406 0.059879 -0.479056
v 0.013738 0.578807 -0.236968
v 0.013738 0.592703 -0.212901
v 0.008000 0.310450 0.104644
v 0.007991 0.309184 -0.012469
v 0.021018 0.576421 -0.007300
v 0.021077 0.591493 0.021077
v 0.021001 0.599455 0.055914
v -0.038964 0.715579 -0.337074
v 0.092431 0.710144 -0.337855
v 0.026805 0.722595 -0.378731
v -0.058446 0.043991 -0.412580
v -0.087491 0.000000 -0.389035
v -0.085475 0.000000 -0.343677
v -0.058446 0.036144 -0.353450
v 0.086842 0.039031 -0.412580
v 0.119529 0.000000 -0.394976
v 0.110801 0.000000 -0.465898
v 0.086842 0.046982 -0.471989
v 0.125821 0.000000 -0.335207
v 0.086842 0.043047 -0.353438
v -0.036632 0.318216 0.104683
v -0.036603 0.316943 -0.012469
v 0.013738 0.594196 -0.144571
v 0.013738 0.578807 -0.115524
v -0.023645 0.600073 0.054480
v -0.023574 0.591766 0.019640
v -0.023635 0.577052 -0.007540
v -0.076377 0.000000 -0.466974
v 0.086921 0.000000 -0.503697
v 0.004203 0.000000 -0.515871
v 0.028098 0.045792 -0.479056
v 0.079972 0.045792 -0.479056
v -0.050592 0.000000 -0.501058
v -0.051683 0.034602 -0.346104
v 0.014199 0.029082 -0.346104
v 0.079919 0.039003 -0.346104
v 0.085849 0.223088 -0.340252
v -0.045650 0.224260 -0.340204
v -0.059634 0.000000 -0.322966
v -0.039569 0.503426 -0.476053
v -0.046620 0.502421 -0.469238
v 0.074361 0.000000 -0.304902
v -0.052423 0.225490 -0.347548
v 0.084906 0.241598 -0.470255
v 0.092746 0.224198 -0.347613
v 0.091746 0.240329 -0.463187
v 0.091271 0.479505 -0.337105
v -0.045924 0.698822 -0.344383
v -0.039043 0.703983 -0.337074
v 0.086423 0.498889 -0.478362
v -0.040244 0.480672 -0.337079
v -0.047021 0.481969 -0.344418
v 0.013738 0.601282 -0.178785
v -0.061698 0.000000 0.347959
v -0.004161 0.000000 0.353287
v -0.020675 0.036384 0.343519
v -0.034991 0.036384 0.343519
v -0.034978 0.047166 0.228616
v -0.030576 0.578807 0.350060
v -0.030576 0.595080 0.317647
v -0.030576 0.601208 0.283396
v -0.030576 0.591566 0.249382
v -0.030576 0.578807 0.228616
v 0.026330 0.000000 0.228616
v -0.013991 0.000000 0.212018
v -0.022948 0.034411 0.228616
v 0.009679 0.030868 0.228616
v 0.026330 0.000000 0.343083
v 0.009667 0.029304 0.343519
v -0.046077 0.000000 0.211873
v -0.057492 0.000000 0.588479
v -0.017980 0.000000 0.588973
v -0.029575 0.035295 0.577207
v -0.046451 0.037961 0.577207
v 0.002665 0.589831 0.545070
v -0.041991 0.590038 0.543896
v -0.041991 0.578421 0.571660
v 0.002665 0.578421 0.571660
v 0.010888 0.000000 0.450418
v -0.026738 0.000000 0.448966
v -0.030248 0.022881 0.462369
v -0.001781 0.025390 0.462368
v 0.010888 0.000000 0.588787
v -0.001794 0.023828 0.577207
v -0.057492 0.000000 0.453700
v -0.046437 0.032324 0.462369
v 0.014083 0.578807 0.228616
v 0.014083 0.592703 0.252683
v -0.000259 0.308407 0.589436
v -0.000268 0.307140 0.472323
v 0.002665 0.563889 0.450466
v 0.002665 0.581970 0.477027
v 0.002665 0.593688 0.510788
v -0.044891 0.316172 0.589474
v -0.044864 0.314899 0.472323
v 0.014083 0.594196 0.321012
v 0.014083 0.578807 0.350060
v -0.041991 0.593545 0.509603
v -0.041991 0.581483 0.475878
v -0.041991 0.563889 0.450466
v 0.014083 0.601282 0.286798
v 0.044261 0.213986 0.188969
v 0.038373 0.133296 0.209633
vt 0.596834 0.717423
vt 0.596834 0.717423
vt 0.596834 0.717423
vt 0.596834 0.717423
vt 0.596834 0.717423
vt 0.596834 0.717423
vt 0.596834 0.717423
vt 0.596834 0.717423
vt 0.720992 0.968535
vt 0.720992 0.968535
vt 0.720992 0.968535
vt 0.720992 0.968535
vt 0.596833 0.717423
vt 0.596833 0.717423
vt 0.596833 0.717423
vt 0.596833 0.717423
vt 0.596833 0.717423
vt 0.596833 0.717423
vt 0.596833 0.717423
vt 0.596833 0.717423
vt 0.596833 0.717423
vt 0.596833 0.717423
vt 0.596833 0.717423
vt 0.720566 0.967191
vt 0.720566 0.967191
vt 0.720566 0.967191
vt 0.790510 0.344566
vt 0.790510 0.344566
vt 0.790510 0.344566
vt 0.790510 0.344566
vt 0.720566 0.967191
vt 0.720566 0.967191
vt 0.720566 0.967191
vt 0.720566 0.967191
vt 0.720566 0.967191
vt 0.720566 0.967191
vt 0.966878 0.967611
vt 0.966878 0.967611
vt 0.966878 0.967611
vt 0.966878 0.967611
vt 0.968678 0.968118
vt 0.968678 0.968118
vt 0.967372 0.967438
vt 0.967372 0.967438
vt 0.722519 0.973050
vt 0.722519 0.973050
vt 0.722519 0.973050
vt 0.722519 0.973050
vt 0.790510 0.344566
vt 0.790510 0.344566
vt 0.790510 0.344566
vt 0.790510 0.344566
vt 0.790510 0.344566
vt 0.790510 0.344566
vt 0.790510 0.344566
vt 0.720326 0.970051
vt 0.720326 0.970051
vt 0.720326 0.970051
vt 0.720326 0.970051
vt 0.720326 0.970051
vt 0.720326 0.970051
vt 0.722519 0.967191
vt 0.722519 0.967191
vt 0.722519 0.967191
vt 0.722519 0.967191
vt 0.718613 0.969144
vt 0.718613 0.969144
vt 0.718613 0.969144
vt 0.718613 0.969144
vt 0.722519 0.969144
vt 0.722519 0.969144
vt 0.722519 0.969144
vt 0.722519 0.969144
vt 0.720326 0.970051
vt 0.720326 0.970051
vt 0.720326 0.970051
vt 0.720326 0.970051
vt 0.720326 0.970051
vt 0.720326 0.970051
vt 0.722519 0.967191
vt 0.722519 0.967191
vt 0.722519 0.967191
vt 0.722519 0.967191
vt 0.596834 0.717423
vt 0.596834 0.717423
vt 0.596834 0.717423
vt 0.596834 0.717423
vt 0.720992 0.968535
vt 0.720992 0.968535
vt 0.720992 0.968535
vt 0.720992 0.968535
vt 0.596834 0.717423
vt 0.596834 0.717423
vt 0.596834 0.717423
vt 0.596834 0.717423
vt 0.596833 0.717423
vt 0.596833 0.717423
vt 0.596833 0.717423
vt 0.596833 0.717423
vt 0.596833 0.717423
vt 0.596833 0.717423
vt 0.790510 0.344566
vt 0.790510 0.344566
vt 0.790510 0.344566
vt 0.790510 0.344566
vt 0.722519 0.969144
vt 0.722519 0.969144
vt 0.722519 0.969144
vt 0.722519 0.969144
vt 0.790510 0.344566
vt 0.790510 0.344566
vt 0.790510 0.344566
vt 0.790510 0.344566
vt 0.790510 0.344566
vt 0.790510 0.344566
vt 0.790510 0.344566
vt 0.720566 0.967191
vt 0.720566 0.967191
vt 0.720566 0.967191
vt 0.720566 0.967191
vt 0.720566 0.967191
vt 0.720566 0.967191
vt 0.720566 0.967191
vt 0.720566 0.967191
vt 0.720566 0.967191
vt 0.720566 0.967191
vt 0.720566 0.967191
vt 0.720566 0.967191
vt 0.720566 0.967191
vt 0.790510 0.344566
vt 0.790510 0.344566
vt 0.790510 0.344566
vt 0.790510 0.344566
vt 0.790510 0.344566
vt 0.790510 0.344566
vt 0.790510 0.344566
vt 0.790510 0.344566
vt 0.790510 0.344566
vt 0.790510 0.344566
vt 0.722519 0.969144
vt 0.722519 0.969144
vt 0.722519 0.969144
vt 0.722519 0.969144
vt 0.790510 0.344566
vt 0.790510 0.344566
vt 0.790510 0.344566
vt 0.790510 0.344566
vt 0.790510 0.344566
vt 0.790510 0.344566
vt 0.790510 0.344566
vt 0.790510 0.344566
vt 0.790510 0.344566
vt 0.720566 0.967191
vt 0.720566 0.967191
vt 0.720566 0.967191
vt 0.720566 0.967191
vt 0.720566 0.967191
vt 0.720566 0.967191
vt 0.720566 0.967191
vt 0.720566 0.967191
vt 0.720326 0.970051
vt 0.720326 0.970051
vt 0.720326 0.970051
vt 0.720326 0.970051
vt 0.722519 0.969144
vt 0.722519 0.969144
vt 0.722519 0.969144
vt 0.722519 0.969144
vt 0.722519 0.969144
vt 0.722519 0.969144
vt 0.722519 0.969144
vt 0.722519 0.969144
vt 0.790510 0.344566
vt 0.790510 0.344566
vt 0.790510 0.344566
vt 0.790510 0.344566
vt 0.790510 0.344566
vt 0.720566 0.967191
vt 0.720566 0.967191
vt 0.790510 0.344566
vt 0.790510 0.344566
vt 0.790510 0.344566
vt 0.790510 0.344566
vt 0.720566 0.967191
vt 0.720566 0.967191
vt 0.790510 0.344566
vt 0.790510 0.344566
vt 0.790510 0.344566
vt 0.790510 0.344566
vt 0.790510 0.344566
vt 0.720566 0.967191
vt 0.790510 0.344566
vt 0.790510 0.344566
vt 0.790510 0.344566
vt 0.790510 0.344566
vt 0.790510 0.344566
vt 0.790510 0.344566
vt 0.720326 0.970051
vt 0.720326 0.970051
vt 0.720326 0.970051
vt 0.720326 0.970051
vt 0.790510 0.344566
vt 0.790510 0.344566
vt 0.790510 0.344566
vt 0.790510 0.344566
vt 0.790510 0.344566
vt 0.790510 0.344566
vt 0.722519 0.969144
vt 0.722519 0.969144
vt 0.722519 0.969144
vt 0.722519 0.969144
vt 0.790510 0.344566
vt 0.790510 0.344566
vt 0.722519 0.969144
vt 0.722519 0.969144
vt 0.722519 0.969144
vt 0.722519 0.969144
vt 0.790510 0.344566
vt 0.790510 0.344566
vt 0.790510 0.344566
vt 0.722519 0.973050
vt 0.722519 0.973050
vt 0.722519 0.973050
vt 0.722519 0.973050
vt 0.790510 0.344566
vt 0.790510 0.344566
vt 0.790510 0.344566
vt 0.790510 0.344566
vt 0.790510 0.344566
vt 0.790510 0.344566
vt 0.790510 0.344566
vt 0.720326 0.970051
vt 0.720326 0.970051
vt 0.720326 0.970051
vt 0.720326 0.970051
vt 0.720326 0.970051
vt 0.720326 0.970051
vt 0.722519 0.967191
vt 0.722519 0.967191
vt 0.722519 0.967191
vt 0.722519 0.967191
vt 0.718613 0.969144
vt 0.718613 0.969144
vt 0.718613 0.969144
vt 0.718613 0.969144
vt 0.722519 0.969144
vt 0.722519 0.969144
vt 0.722519 0.969144
vt 0.722519 0.969144
vt 0.720326 0.970051
vt 0.720326 0.970051
vt 0.720326 0.970051
vt 0.720326 0.970051
vt 0.720326 0.970051
vt 0.720326 0.970051
vt 0.722519 0.967191
vt 0.722519 0.967191
vt 0.722519 0.967191
vt 0.722519 0.967191
vt 0.722519 0.969144
vt 0.722519 0.969144
vt 0.722519 0.969144
vt 0.722519 0.969144
vt 0.790510 0.344566
vt 0.790510 0.344566
vt 0.790510 0.344566
vt 0.790510 0.344566
vt 0.790510 0.344566
vt 0.790510 0.344566
vt 0.790510 0.344566
vt 0.790510 0.344566
vt 0.790510 0.344566
vt 0.790510 0.344566
vt 0.790510 0.344566
vt 0.790510 0.344566
vt 0.790510 0.344566
vt 0.790510 0.344566
vt 0.790510 0.344566
vt 0.790510 0.344566
vt 0.790510 0.344566
vt 0.722519 0.969144
vt 0.722519 0.969144
vt 0.722519 0.969144
vt 0.722519 0.969144
vt 0.790510 0.344566
vt 0.790510 0.344566
vt 0.790510 0.344566
vt 0.790510 0.344566
vt 0.790510 0.344566
vt 0.790510 0.344566
vt 0.790510 0.344566
vt 0.790510 0.344566
vt 0.790510 0.344566
vt 0.720326 0.970051
vt 0.720326 0.970051
vt 0.720326 0.970051
vt 0.720326 0.970051
vt 0.722519 0.969144
vt 0.722519 0.969144
vt 0.722519 0.969144
vt 0.722519 0.969144
vt 0.722519 0.969144
vt 0.722519 0.969144
vt 0.722519 0.969144
vt 0.722519 0.969144
vt 0.722519 0.969144
vt 0.722519 0.969144
vt 0.722519 0.969144
vt 0.722519 0.969144
vt 0.722519 0.969144
vt 0.722519 0.969144
vt 0.722519 0.969144
vt 0.722519 0.969144
vt 0.790510 0.344566
vt 0.790510 0.344566
vt 0.790510 0.344566
vt 0.596833 0.717423
vt 0.596833 0.717423
vt 0.596833 0.717423
vn 0.9953 -0.0964 0.0062
vn -0.9989 0.0188 0.0428
vn 0.0000 0.9996 0.0267
vn 1.0000 0.0000 -0.0066
vn 0.0000 -0.9996 -0.0267
vn -0.0021 -1.0000 0.0083
vn -0.9992 -0.0396 -0.0020
vn -0.9991 -0.0356 0.0223
vn 0.2491 0.9680 -0.0316
vn 0.9997 -0.0259 -0.0041
vn -0.1767 0.9838 -0.0289
vn 0.0379 0.9571 -0.2874
vn 0.0000 0.0000 1.0000
vn 0.0000 0.0000 -1.0000
vn -0.0724 0.2009 0.9769
vn -1.0000 0.0080 0.0003
vn 0.2249 0.3220 -0.9196
vn 0.8749 0.4843 0.0033
vn -0.9082 0.4166 -0.0387
vn 0.0058 0.3000 0.9539
vn 0.0067 0.8726 0.4883
vn 0.0018 0.4654 -0.8851
vn 0.8890 0.4579 0.0029
vn -0.9540 0.2996 -0.0068
vn 0.0000 -0.9996 0.0267
vn 0.0000 -1.0000 -0.0000
vn 0.0000 0.9996 -0.0267
vn 0.0000 1.0000 0.0000
vn -0.9989 0.0189 -0.0428
vn -0.9998 0.0178 0.0000
vn 0.9951 -0.0964 0.0203
vn 0.9958 -0.0913 -0.0057
vn 0.0000 -0.9991 -0.0433
vn -0.9992 -0.0396 0.0004
vn 0.0000 0.9991 0.0433
vn 0.0000 1.0000 -0.0091
vn -0.6967 0.0352 -0.7165
vn 0.0079 0.8595 -0.5110
vn 0.9989 -0.0459 0.0032
vn 0.0416 0.9724 0.2294
vn -0.8060 0.5889 0.0598
vn 0.8378 0.5455 -0.0228
vn 0.7651 0.6409 -0.0621
vn 0.9994 -0.0355 -0.0000
vn 0.0056 0.0212 0.9998
vn -0.9994 0.0360 -0.0013
vn -0.0085 0.8889 0.4579
vn -0.0010 -0.0120 0.9999
vn -0.0047 -0.0288 -0.9996
vn -0.9989 0.0470 -0.0034
vn -0.9124 0.4083 -0.0294
vn 0.0755 0.5460 -0.8344
vn -0.0441 0.4932 -0.8688
vn 0.0830 0.3953 0.9148
vn 0.1870 0.2301 0.9550
vn 0.1111 0.3735 -0.9210
vn -0.0184 0.3733 -0.9275
vn 0.0498 0.9980 -0.0391
vn 0.0006 -0.0308 0.9995
vn -0.5257 0.5585 0.6417
vn -0.6980 -0.0061 -0.7161
vn 0.7646 0.3614 -0.5336
vn 0.1627 0.9862 0.0295
vn 0.1550 0.9831 -0.0973
vn -0.0777 0.9963 0.0376
vn -0.0684 0.9920 -0.1061
vn 0.3850 0.6391 0.6658
vn -0.7352 0.0023 0.6779
vn -0.7668 0.1965 -0.6111
vn 0.0240 0.0297 -0.9993
vn -0.0654 0.7031 0.7081
vn 0.7356 -0.0454 0.6759
vn 0.7178 0.0133 -0.6961
vn 0.8936 -0.0153 0.4486
vn -0.7295 0.0046 0.6840
vn -0.9995 0.0325 0.0044
vn 0.9996 -0.0281 -0.0066
vn 0.7129 -0.0175 -0.7011
vn 1.0000 -0.0034 -0.0031
vn 0.0130 -0.0159 -0.9998
vn -0.6958 0.0149 -0.7180
vn -0.7343 0.0072 0.6788
vn 0.0002 -0.0122 0.9999
vn -0.9998 0.0212 0.0005
vn 0.8933 -0.0133 0.4493
vn 0.7153 -0.0263 -0.6983
vn -0.0122 -0.0039 -0.9999
vn -0.0058 -0.0375 0.9993
vn 0.0045 0.0189 -0.9998
vn 0.0178 0.8812 -0.4725
vn -1.0000 0.0062 0.0075
vn 0.0059 -0.0000 1.0000
vn -0.7319 0.0038 0.6814
vn 0.0030 0.0016 1.0000
vn -1.0000 0.0022 0.0021
vn -0.0055 0.9819 0.1895
vn 0.0063 0.9660 -0.2584
vn 0.0105 0.9766 0.2147
vn 0.0170 0.9737 -0.2273
vn 1.0000 -0.0078 -0.0000
vn -0.9082 0.4167 -0.0387
vn -0.0030 0.9208 0.3901
vn 0.0018 0.4655 -0.8851
vn -0.9540 0.2997 -0.0068
vn 0.9999 -0.0105 0.0007
vn 1.0000 -0.0054 0.0000
vn -0.0103 -0.0436 0.9990
vn -1.0000 0.0056 -0.0003
vn 0.0057 0.0348 -0.9994
vn -0.9999 0.0106 -0.0008
vn 0.1110 0.3735 -0.9210
vn -0.0184 0.3734 -0.9275
vn 0.0062 0.0667 0.9978
vn -0.0075 -0.0860 -0.9963
vn 0.0028 0.8245 -0.5659
vn -0.0021 0.9943 0.1068
vn 0.0020 0.9432 -0.3323
vn 0.0021 0.9999 -0.0111
vn 0.0000 -1.0000 0.0091
vn 0.9997 -0.0039 -0.0231
vn 0.0000 -0.2387 -0.9711
vn 0.0069 0.2026 0.9792
vn 1.0000 0.0000 -0.0004
s off
f 1/1/1 2/2/1 3/3/1 4/4/1
f 5/5/2 6/6/2 7/7/2 8/8/2
f 4/9/3 3/10/3 7/11/3 6/12/3
f 9/13/4 10/14/4 11/15/4 12/16/4
f 5/5/5 8/8/5 2/2/5 1/1/5
f 9/13/6 13/17/6 14/18/6 15/19/6
f 15/19/7 16/20/7 17/21/7 18/22/7
f 14/18/8 19/23/8 16/20/8 15/19/8
f 20/24/9 21/25/9 22/26/9
f 23/27/10 24/28/10 21/29/10 20/30/10
f 25/31/11 26/32/11 27/33/11
f 28/34/12 29/35/12 30/36/12
f 31/37/13 32/38/13 33/39/13 34/40/13
f 10/14/14 18/22/14 17/21/14 11/15/14
f 3/3/14 2/2/14 8/8/14 7/7/14
f 35/41/13 36/42/13 37/43/13 38/44/13
f 39/45/15 40/46/15 41/47/15 42/48/15
f 43/49/16 42/50/16 44/51/16 45/52/16 46/53/16 47/54/16 48/55/16
f 49/56/17 50/57/17 51/58/17 52/59/17
f 53/60/18 49/56/18 52/59/18 54/61/18
f 55/62/19 39/63/19 42/64/19 43/65/19
f 56/66/20 57/67/20 58/68/20 59/69/20
f 60/70/21 61/71/21 62/72/21 63/73/21
f 64/74/22 65/75/22 66/76/22 67/77/22
f 68/78/23 64/74/23 67/77/23 69/79/23
f 70/80/24 56/81/24 59/82/24 71/83/24
f 37/84/25 72/85/25 73/86/25 38/87/25
f 72/85/26 5/5/26 1/1/26 73/86/26
f 35/88/27 74/89/27 75/90/27 36/91/27
f 74/89/28 4/9/28 6/12/28 75/90/28
f 37/84/29 36/92/29 75/93/29 72/85/29
f 72/85/30 75/93/30 6/6/30 5/5/30
f 38/87/31 73/86/31 74/94/31 35/95/31
f 73/86/32 1/1/32 4/4/32 74/94/32
f 10/14/33 9/13/33 15/19/33 18/22/33
f 33/96/34 32/97/34 76/98/34 77/99/34
f 17/21/35 16/20/35 12/16/35 11/15/35
f 76/98/36 32/97/36 31/100/36 78/101/36
f 79/102/37 80/103/37 81/104/37 82/105/37
f 83/106/38 48/107/38 47/108/38 84/109/38
f 85/110/39 86/111/39 87/112/39 88/113/39 89/114/39 60/115/39 63/116/39
f 90/117/40 91/118/40 92/119/40
f 93/120/41 94/121/41 95/122/41 96/123/41
f 97/124/42 98/125/42 99/126/42 100/127/42
f 101/128/43 98/125/43 97/124/43 102/129/43
f 69/130/44 67/131/44 86/111/44 85/110/44
f 59/132/45 58/133/45 69/130/45 85/110/45 103/134/45
f 52/135/14 51/136/14 43/49/14 48/55/14 83/137/14
f 71/138/46 59/132/46 103/134/46 104/139/46
f 105/140/47 45/141/47 44/142/47 106/143/47
f 42/50/48 41/144/48 54/145/48 106/146/48 44/51/48
f 67/131/49 66/147/49 71/138/49 104/139/49 86/111/49
f 104/139/50 103/134/50 62/148/50 61/149/50 107/150/50 108/151/50 109/152/50
f 110/153/51 94/121/51 93/120/51 79/154/51
f 111/155/52 112/156/52 113/157/52 114/158/52
f 113/157/53 112/156/53 115/159/53 82/160/53
f 58/161/54 57/162/54 68/78/54 69/79/54
f 41/163/55 40/164/55 53/60/55 54/61/55
f 51/165/56 50/166/56 55/167/56 43/168/56
f 66/169/57 65/170/57 70/171/57 71/172/57
f 92/119/58 22/26/58 30/36/58 27/33/58
f 116/173/59 117/174/59 118/175/59 119/176/59 120/177/59
f 96/123/60 95/122/60 121/178/60 116/179/60
f 122/180/61 123/181/61 25/182/61 29/183/61
f 100/127/62 99/126/62 111/155/62 114/158/62
f 92/119/63 91/118/63 20/24/63 22/26/63
f 28/34/64 30/36/64 22/26/64 21/25/64
f 27/33/65 26/32/65 90/117/65 92/119/65
f 30/36/66 29/35/66 25/31/66 27/33/66
f 101/128/67 102/129/67 118/184/67 124/185/67
f 120/177/68 125/186/68 96/187/68 116/173/68
f 110/153/69 79/154/69 82/160/69 115/159/69
f 114/188/70 113/189/70 82/105/70 81/104/70 126/190/70
f 121/178/71 124/185/71 118/184/71 117/191/71 116/179/71
f 102/192/72 127/193/72 119/176/72 118/175/72
f 126/190/73 128/194/73 100/195/73 114/188/73
f 129/196/74 23/27/74 20/30/74 91/197/74
f 26/198/75 130/199/75 131/200/75 90/201/75
f 79/102/76 93/202/76 96/187/76 125/186/76 80/103/76
f 102/192/77 97/203/77 100/195/77 128/194/77 127/193/77
f 21/29/78 24/28/78 132/204/78 28/205/78
f 24/28/79 23/27/79 127/193/79 128/194/79
f 122/180/80 132/204/80 126/190/80 81/104/80
f 81/104/81 80/103/81 123/181/81 122/180/81
f 125/186/82 120/177/82 133/206/82 134/207/82
f 120/177/83 119/176/83 129/196/83 133/206/83
f 80/103/84 125/186/84 134/207/84 123/181/84
f 23/27/85 129/196/85 119/176/85 127/193/85
f 132/204/86 24/28/86 128/194/86 126/190/86
f 132/204/87 122/180/87 29/183/87 28/205/87
f 103/134/88 85/110/88 63/116/88 62/148/88
f 86/111/89 104/139/89 109/152/89 87/112/89
f 87/208/90 109/209/90 108/210/90 88/211/90
f 25/31/91 130/199/91 26/198/91
f 131/200/92 91/118/92 90/201/92
f 131/212/93 130/213/93 134/207/93 133/206/93
f 133/206/94 129/196/94 91/197/94 131/212/94
f 25/182/95 123/181/95 134/207/95 130/213/95
f 45/141/96 105/140/96 135/214/96 46/215/96
f 46/215/97 135/214/97 84/109/97 47/108/97
f 61/71/98 60/70/98 89/216/98 107/217/98
f 107/217/99 89/216/99 88/211/99 108/210/99
f 54/145/100 52/135/100 83/137/100 84/218/100 135/219/100 105/220/100 106/146/100
f 136/221/15 137/222/15 138/223/15 139/224/15
f 140/225/16 139/226/16 141/227/16 142/228/16 143/229/16 144/230/16 145/231/16
f 146/232/17 147/233/17 148/234/17 149/235/17
f 150/236/18 146/232/18 149/235/18 151/237/18
f 152/238/101 136/239/101 139/240/101 140/241/101
f 153/242/20 154/243/20 155/244/20 156/245/20
f 157/246/102 158/247/102 159/248/102 160/249/102
f 161/250/103 162/251/103 163/252/103 164/253/103
f 165/254/23 161/250/23 164/253/23 166/255/23
f 167/256/104 153/257/104 156/258/104 168/259/104
f 169/260/38 145/261/38 144/262/38 170/263/38
f 171/264/105 172/265/105 173/266/105 174/267/105 175/268/105 157/269/105 160/270/105
f 166/271/106 164/272/106 172/265/106 171/264/106
f 156/273/107 155/274/107 166/271/107 171/264/107 176/275/107
f 149/276/14 148/277/14 140/225/14 145/231/14 169/278/14
f 168/279/108 156/273/108 176/275/108 177/280/108
f 178/281/47 142/282/47 141/283/47 179/284/47
f 139/226/48 138/285/48 151/286/48 179/287/48 141/227/48
f 164/272/109 163/288/109 168/279/109 177/280/109 172/265/109
f 177/280/110 176/275/110 159/289/110 158/290/110 180/291/110 181/292/110 182/293/110
f 155/294/54 154/295/54 165/254/54 166/255/54
f 138/296/55 137/297/55 150/236/55 151/237/55
f 148/298/111 147/299/111 152/300/111 140/301/111
f 163/302/112 162/303/112 167/304/112 168/305/112
f 176/275/113 171/264/113 160/270/113 159/289/113
f 172/265/114 177/280/114 182/293/114 173/266/114
f 173/306/115 182/307/115 181/308/115 174/309/115
f 142/282/96 178/281/96 183/310/96 143/311/96
f 143/311/97 183/310/97 170/263/97 144/262/97
f 158/247/116 157/246/116 175/312/116 180/313/116
f 180/313/117 175/312/117 174/309/117 181/308/117
f 151/286/100 149/276/100 169/278/100 170/314/100 183/315/100 178/316/100 179/287/100
f 16/20/118 19/23/118 184/317/118 12/16/118
f 185/318/119 34/319/119 33/96/119 77/99/119
f 13/17/120 9/13/120 12/16/120 184/317/120
f 78/101/121 185/318/121 77/99/121 76/98/121
f 13/17/122 184/317/122 19/23/122 14/18/122
f 34/319/123 185/318/123 78/101/123 31/100/123
