# Blender v2.79 (sub 0) OBJ File: ''
# www.blender.org
o rock_small__2
v 0.226915 0.166159 0.166977
v 0.112217 0.000013 0.331880
v 0.285972 0.000013 0.273862
v -0.330853 0.000007 0.186207
v -0.217116 0.000009 0.266693
v -0.178162 0.160683 0.219910
v 0.235315 0.000003 -0.273446
v 0.204077 0.116810 -0.230579
v 0.351941 0.000006 -0.125818
v -0.195287 0.124754 -0.087552
v -0.218359 0.147387 0.046594
v 0.267040 0.146989 -0.085894
v -0.082395 0.102436 -0.206455
v 0.380625 0.000013 0.200860
v -0.344738 0.000002 -0.101850
v -0.342047 0.000003 -0.013835
v 0.018548 0.000001 -0.276083
v -0.173687 -0.000000 -0.291466
vt 0.747032 0.721480
vt 0.749150 0.689050
vt 0.750912 0.670817
vt 0.741638 0.661086
vt 0.755615 0.724464
vt 0.749150 0.677627
vt 0.697730 0.725809
vt 0.703944 0.722444
vt 0.714333 0.736971
vt 0.715868 0.678438
vt 0.730248 0.674836
vt 0.720286 0.727981
vt 0.703858 0.691518
vt 0.754190 0.661086
vt 0.711032 0.662181
vt 0.720371 0.661680
vt 0.695635 0.702629
vt 0.692396 0.682190
vn 0.2567 0.5858 0.7687
vn -0.5404 0.3534 0.7636
vn 0.7189 0.4007 -0.5680
vn -0.0467 0.9836 -0.1740
vn -0.1842 0.3157 0.9308
vn -0.0693 0.9665 -0.2472
vn 0.0872 0.6708 0.7365
vn 0.7261 0.6847 0.0633
vn -0.7705 0.6370 0.0236
vn 0.0114 0.3472 -0.9377
vn -0.7740 0.6318 0.0433
vn 0.7272 0.5364 -0.4283
vn -0.0228 0.9972 -0.0712
vn 0.0636 0.6031 -0.7951
vn -0.0466 0.9817 -0.1845
vn -0.4866 0.6498 -0.5839
vn 0.4941 0.5878 0.6406
vn -0.6100 0.7575 -0.2327
vn -0.0975 0.4919 -0.8651
vn -0.7321 0.6709 0.1183
vn 0.8545 0.5140 -0.0750
vn -0.0207 0.9967 -0.0788
vn -0.4712 0.7728 -0.4251
s off
f 1/1/1 2/2/1 3/3/1
f 4/4/2 5/5/2 6/6/2
f 7/7/3 8/8/3 9/9/3
f 10/10/4 11/11/4 12/12/4
f 6/6/5 5/5/5 2/2/5
f 10/10/6 8/8/6 13/13/6
f 1/1/7 6/6/7 2/2/7
f 14/14/8 12/12/8 1/1/8
f 15/15/9 16/16/9 11/11/9
f 8/8/10 7/7/10 17/17/10
f 11/11/11 16/16/11 4/4/11
f 9/9/12 8/8/12 12/12/12
f 11/11/13 6/6/13 1/1/13
f 13/13/14 17/17/14 18/18/14
f 8/8/15 10/10/15 12/12/15
f 15/15/16 10/10/16 13/13/16
f 3/3/17 14/14/17 1/1/17
f 10/10/18 15/15/18 11/11/18
f 13/13/19 8/8/19 17/17/19
f 6/6/20 11/11/20 4/4/20
f 14/14/21 9/9/21 12/12/21
f 12/12/22 11/11/22 1/1/22
f 15/15/23 13/13/23 18/18/23
