# Blender v2.79 (sub 0) OBJ File: ''
# www.blender.org
o rock_pilar__5
v -1.107710 -6.617025 -3.114180
v -1.651871 -3.305459 -2.575619
v -0.816639 -2.627647 -3.017573
v 2.201281 -6.616991 -2.100444
v 1.702280 -6.616996 -2.598970
v 1.095600 -2.940215 -2.321862
v -2.055340 -4.115926 -0.374224
v -2.201281 -5.082870 0.713596
v -1.087601 -3.144389 1.389707
v 1.437281 -3.670960 1.300667
v 1.601980 -6.616995 1.633437
v 1.961370 -6.616992 0.934697
v -0.859921 -0.173927 1.328057
v 1.962030 -6.616993 -0.748563
v 1.843260 -3.525539 -1.122457
v -0.880329 -0.139433 -1.352339
v 0.421801 -6.617006 3.152997
v 0.912161 -0.939593 1.411888
v 0.265711 -3.495504 2.406717
v 0.553480 -0.042930 -1.036056
v -0.109060 -0.083078 -1.582562
v -0.158430 -0.000000 1.573137
v 1.004089 -1.939905 -0.456903
v -0.391680 -2.592390 2.262137
v 0.562571 -2.604115 -2.830080
v 0.426580 -6.617010 -3.109975
v -0.421999 -6.617018 -3.139291
v 0.349859 -4.959702 2.724836
v -0.632389 -4.727707 2.390467
v 1.787439 -3.600659 0.717867
v -1.942739 -6.617031 2.006456
v -1.574200 -5.306077 1.692117
v -1.857630 -6.617033 -2.503999
v -2.189240 -6.617035 0.064446
v -1.611300 -6.617031 -3.152998
v -0.741650 -6.617018 2.410307
vt 0.679468 0.759311
vt 0.676671 0.729482
vt 0.681063 0.723632
vt 0.739780 0.760813
vt 0.695217 0.759129
vt 0.738940 0.727204
vt 0.710211 0.736601
vt 0.705238 0.744967
vt 0.703474 0.726901
vt 0.721525 0.732644
vt 0.719441 0.759063
vt 0.751792 0.760811
vt 0.735563 0.701876
vt 0.745041 0.760698
vt 0.744127 0.733126
vt 0.676670 0.769398
vt 0.725958 0.759920
vt 0.754223 0.709537
vt 0.728058 0.731763
vt 0.744357 0.701102
vt 0.680463 0.771448
vt 0.684748 0.759524
vt 0.746574 0.718370
vt 0.700114 0.721358
vt 0.754353 0.750132
vt 0.687937 0.759333
vt 0.683240 0.759333
vt 0.727012 0.744955
vt 0.732501 0.742941
vt 0.751455 0.733869
vt 0.698904 0.758135
vt 0.737435 0.748008
vt 0.716932 0.759505
vt 0.706768 0.758863
vt 0.676670 0.759321
vt 0.732343 0.759847
vn -0.5030 0.0576 -0.8623
vn 0.6968 0.1675 -0.6974
vn -0.8745 0.4148 0.2513
vn 0.8847 0.1009 0.4551
vn -0.8915 0.0776 0.4464
vn 0.9830 0.0588 0.1740
vn -0.6622 0.4050 -0.6304
vn 0.7847 0.1127 0.6095
vn 0.6909 0.1037 0.7154
vn -0.0383 0.9989 -0.0269
vn -0.9611 0.2646 -0.0787
vn 0.9752 0.2117 -0.0653
vn -0.9582 0.2858 0.0110
vn -0.3765 0.2695 0.8864
vn 0.7490 0.4432 -0.4925
vn 0.0344 0.0684 -0.9971
vn -0.0366 0.0269 -0.9990
vn -0.2644 0.2305 0.9365
vn 0.8411 0.1404 0.5223
vn 0.6747 0.2119 0.7070
vn -0.7521 0.3459 0.5609
vn -0.9855 0.0578 -0.1594
vn 0.8722 0.2365 -0.4283
vn -0.9902 -0.0610 0.1257
vn 0.0757 0.1722 -0.9822
vn -0.9942 0.0353 -0.1020
vn -0.6122 0.0437 0.7895
vn 0.3687 0.1302 -0.9204
vn 0.1115 0.4645 -0.8786
vn 0.3610 0.2575 0.8963
vn -0.0689 0.9975 0.0134
vn -0.8128 0.1258 0.5688
vn 0.0830 0.2161 0.9728
vn 0.8907 0.4523 0.0455
vn 0.9983 0.0576 0.0004
vn 0.8493 0.0864 0.5207
vn 0.6644 0.7280 0.1693
vn 0.9752 0.2116 -0.0656
vn -0.8019 0.0738 0.5930
vn 0.5618 0.4211 -0.7120
vn 0.1338 0.0434 -0.9900
vn -0.5376 0.0399 0.8422
vn 0.9298 0.3416 -0.1371
vn 0.6888 0.1915 0.6992
vn -0.7864 0.2557 0.5623
vn -0.9913 0.0306 -0.1280
vn -0.9337 0.0504 -0.3544
vn -0.3038 0.3021 0.9036
vn 0.6984 0.0262 -0.7152
vn -0.2779 0.5293 -0.8016
vn 0.1243 0.2444 0.9617
vn -0.2309 0.9725 -0.0292
vn -0.6708 0.2487 0.6987
vn -0.3016 0.0910 0.9491
vn 0.8104 0.5320 -0.2456
vn 0.9986 0.0422 0.0320
s off
f 1/1/1 2/2/1 3/3/1
f 4/4/2 5/5/2 6/6/2
f 7/7/3 8/8/3 9/9/3
f 10/10/4 11/11/4 12/12/4
f 13/13/5 7/7/5 9/9/5
f 14/14/6 4/4/6 15/15/6
f 3/3/7 2/2/7 16/16/7
f 17/17/8 11/11/8 10/10/8
f 10/10/9 18/18/9 19/19/9
f 20/20/10 21/21/10 22/22/10
f 16/16/11 2/2/11 7/7/11
f 20/20/12 18/18/12 23/23/12
f 13/13/13 16/16/13 7/7/13
f 24/24/14 22/22/14 13/13/14
f 6/6/15 25/25/15 21/21/15
f 25/25/16 26/26/16 27/27/16
f 27/27/17 1/1/17 3/3/17
f 17/17/18 28/28/18 29/29/18
f 18/18/19 10/10/19 30/30/19
f 28/28/20 17/17/20 10/10/20
f 8/8/21 31/31/21 32/32/21
f 7/7/22 2/2/22 33/33/22
f 15/15/23 4/4/23 6/6/23
f 31/31/24 8/8/24 34/34/24
f 2/2/25 1/1/25 35/35/25
f 7/7/26 34/34/26 8/8/26
f 36/36/27 29/29/27 32/32/27
f 6/6/28 5/5/28 26/26/28
f 21/21/29 25/25/29 3/3/29
f 19/19/30 18/18/30 22/22/30
f 21/21/31 16/16/31 13/13/31
f 29/29/32 24/24/32 9/9/32
f 28/28/33 19/19/33 24/24/33
f 23/23/34 30/30/34 15/15/34
f 30/30/35 12/12/35 14/14/35
f 30/30/36 10/10/36 12/12/36
f 18/18/37 20/20/37 22/22/37
f 6/6/38 20/20/38 23/23/38
f 9/9/39 24/24/39 13/13/39
f 20/20/40 6/6/40 21/21/40
f 3/3/41 25/25/41 27/27/41
f 36/36/42 17/17/42 29/29/42
f 23/23/43 18/18/43 30/30/43
f 19/19/44 28/28/44 10/10/44
f 9/9/45 8/8/45 32/32/45
f 34/34/46 7/7/46 33/33/46
f 33/33/47 2/2/47 35/35/47
f 31/31/48 36/36/48 32/32/48
f 25/25/49 6/6/49 26/26/49
f 16/16/50 21/21/50 3/3/50
f 24/24/51 19/19/51 22/22/51
f 22/22/52 21/21/52 13/13/52
f 32/32/53 29/29/53 9/9/53
f 29/29/54 28/28/54 24/24/54
f 6/6/55 23/23/55 15/15/55
f 15/15/56 30/30/56 14/14/56
