# Blender v2.79 (sub 0) OBJ File: ''
# www.blender.org
o Rock_3
v 1.154470 0.364726 -0.762080
v 0.970524 0.000504 -0.815485
v 0.680637 0.423101 -0.964410
v -1.241449 0.506505 0.454351
v -1.787519 0.457402 -0.015658
v -1.370824 0.328042 0.332911
v 0.873301 0.491828 0.867206
v 0.601828 0.659321 0.898444
v 0.329240 0.299804 0.821135
v -0.201572 1.165003 0.058263
v -0.674206 1.125527 -0.091441
v -0.480250 0.796316 0.716407
v -1.673279 0.478180 -0.209990
v -1.347329 0.286239 -0.475954
v -1.636570 0.282093 -0.136916
v 0.882345 0.933976 -0.687801
v 1.024877 1.016684 0.365338
v 1.104628 0.929873 -0.481938
v 0.379890 0.000017 0.695165
v 0.134784 0.227089 0.694027
v -0.644912 0.117420 0.572923
v 0.879121 0.376768 0.887246
v 1.332310 0.421144 0.579780
v -0.921314 0.000432 -0.633717
v -1.109439 0.000399 -0.535910
v -0.084479 0.146478 -0.733356
v 0.774022 0.000514 -0.850523
v -0.160058 0.000466 -0.721287
v -0.556156 0.486051 -0.853049
v -0.676911 0.150548 -0.710246
v -1.439540 0.782782 -0.093272
v -1.015800 0.671934 0.554165
v 0.914061 0.722580 -0.797122
v -0.870683 0.511720 0.672044
v 1.442856 0.556036 0.066381
v 1.230370 0.596000 0.605586
v 1.445787 0.389978 0.343682
v -1.315458 0.000336 -0.341541
v -1.109680 0.441186 -0.665300
v 1.474293 0.413565 -0.161095
v 1.477123 0.000243 0.013403
v 1.380088 0.000395 -0.464405
v 1.343413 0.395601 -0.567302
v -0.867757 0.115203 0.437402
v -0.985113 0.315082 0.539098
v -1.207393 0.093537 0.295120
v -0.332023 0.579596 0.804751
v -1.169336 0.617241 -0.604916
v -0.301707 0.841897 -0.783482
v -1.190663 0.000135 0.288696
v -0.671262 0.000053 0.557782
v -1.422871 0.000259 -0.104850
v -1.377839 0.000193 0.101924
v 0.326956 0.139528 0.713876
v 0.869848 0.799386 0.785192
v -0.091473 0.590743 -0.880839
v 0.859929 1.185483 0.047102
v 1.420253 0.000139 0.334620
v 1.277465 0.000438 -0.600594
v 0.887425 0.000000 0.758110
v 1.300767 0.000054 0.600099
v 1.162251 0.000474 -0.717748
vt 0.865661 0.944056
vt 0.811172 0.647830
vt 0.775746 0.667534
vt 0.825479 0.678270
vt 0.785699 0.851163
vt 0.839105 0.667246
vt 0.856795 0.825015
vt 0.835640 0.802112
vt 0.855875 0.786256
vt 0.660334 0.698299
vt 0.660334 0.750975
vt 0.593740 0.731945
vt 0.694111 0.809720
vt 0.791301 0.816333
vt 0.856043 0.632524
vt 0.728496 0.627373
vt 0.711005 0.885304
vt 0.821590 0.923175
vt 0.881082 0.786504
vt 0.861714 0.770309
vt 0.857478 0.721127
vt 0.859690 0.820133
vt 0.863484 0.849864
vt 0.811042 0.784683
vt 0.812459 0.798861
vt 0.799616 0.724009
vt 0.721804 0.875117
vt 0.810835 0.729511
vt 0.745277 0.730425
vt 0.798657 0.766623
vt 0.675219 0.786759
vt 0.597219 0.772678
vt 0.756315 0.652003
vt 0.823789 0.708805
vt 0.852652 0.887451
vt 0.721804 0.820152
vt 0.866006 0.867801
vt 0.815576 0.815012
vt 0.776515 0.797951
vt 0.863630 0.904090
vt 0.896219 0.891960
vt 0.895299 0.925171
vt 0.864105 0.931886
vt 0.858631 0.702569
vt 0.839351 0.698320
vt 0.858866 0.677149
vt 0.579754 0.722706
vt 0.764059 0.802656
vt 0.727254 0.703901
vt 0.865373 0.678663
vt 0.864964 0.719994
vt 0.876925 0.648685
vt 0.869256 0.659989
vt 0.870403 0.783012
vt 0.595306 0.635981
vt 0.763070 0.723453
vt 0.660334 0.640724
vt 0.896437 0.868496
vt 0.894790 0.933939
vt 0.889005 0.818474
vt 0.896378 0.848428
vt 0.813268 0.634791
vn 0.3858 -0.0598 -0.9207
vn -0.6493 -0.0459 0.7592
vn -0.0117 -0.2017 0.9794
vn -0.2044 0.8884 0.4111
vn -0.7078 -0.3592 -0.6083
vn 0.1033 0.9904 -0.0918
vn -0.7956 -0.3366 -0.5037
vn -0.1329 -0.1386 0.9814
vn 0.5417 0.1708 0.8231
vn -0.4525 -0.1940 -0.8704
vn -0.1370 -0.0109 -0.9905
vn -0.0387 -0.3795 -0.9244
vn -0.3770 0.8398 0.3906
vn 0.6169 0.4326 -0.6575
vn -0.5007 0.1709 0.8486
vn -0.0393 -0.0621 -0.9973
vn 0.8210 0.4936 0.2869
vn -0.6330 -0.3860 -0.6710
vn -0.2869 -0.2859 -0.9143
vn 0.9978 0.0312 0.0578
vn 0.9771 -0.0771 -0.1985
vn 0.9517 0.0084 -0.3070
vn 0.6486 0.3939 -0.6512
vn 0.6393 0.3632 -0.6778
vn 0.4051 0.1845 -0.8955
vn -0.4137 -0.5940 0.6900
vn -0.3959 -0.5903 0.7034
vn -0.3378 -0.3746 0.8635
vn -0.3246 0.8461 0.4227
vn -0.2710 -0.5962 0.7557
vn -0.2786 0.3723 -0.8853
vn -0.3293 0.2046 -0.9218
vn -0.4553 0.1419 0.8789
vn -0.3760 -0.1304 0.9174
vn -0.7063 -0.3641 -0.6070
vn -0.7328 -0.5935 -0.3328
vn -0.5289 -0.4812 0.6991
vn 0.1254 -0.5530 0.8237
vn 0.6013 0.5970 0.5310
vn 0.7939 0.5435 0.2726
vn 0.7409 0.6716 0.0009
vn -0.1290 -0.0983 0.9868
vn 0.0098 0.4818 -0.8762
vn 0.0270 0.3809 -0.9242
vn 0.0355 0.4633 -0.8855
vn -0.1571 -0.4888 0.8582
vn -0.4832 -0.2797 0.8296
vn -0.4636 -0.2436 0.8519
vn -0.0217 0.9457 -0.3243
vn -0.0118 0.8745 0.4849
vn -0.0256 0.8857 0.4636
vn 0.9824 -0.0684 0.1739
vn 0.9908 0.1203 0.0616
vn 0.7552 0.5974 -0.2698
vn 0.8700 0.4280 -0.2449
vn -0.3202 -0.5237 0.7894
vn -0.1425 -0.0764 0.9868
vn -0.3631 0.8132 -0.4549
vn -0.3120 0.8083 -0.4992
vn -0.0392 0.6725 0.7390
vn -0.1207 0.3028 0.9454
vn -0.0864 -0.1464 0.9854
vn -0.1691 -0.3129 -0.9346
vn 0.0142 -0.3148 -0.9490
vn -0.1182 0.2713 -0.9552
vn 0.0845 0.8768 -0.4734
vn -0.1266 -0.4058 -0.9051
vn -0.5196 0.0064 0.8544
vn -0.7942 -0.5826 0.1728
vn -0.6958 -0.1726 0.6972
vn 0.7213 -0.0623 -0.6898
vn -0.2105 -0.2080 0.9552
vn -0.3520 0.1433 0.9250
vn 0.8327 0.4349 0.3428
vn -0.1910 -0.2013 0.9607
vn -0.1088 -0.3051 -0.9461
vn -0.3203 0.1615 0.9335
vn -0.2665 0.4029 0.8756
vn -0.1535 -0.4754 0.8663
vn -0.5763 0.6380 -0.5108
vn -0.6827 0.6510 -0.3317
vn -0.5427 0.6934 0.4739
vn 0.0128 0.8861 0.4633
vn 0.8363 0.5260 -0.1545
vn -0.4875 -0.2679 -0.8310
vn -0.6279 0.0121 -0.7782
vn -0.6253 0.0551 -0.7785
vn 0.0368 0.9315 -0.3619
vn -0.0441 0.9344 -0.3534
vn 0.4163 -0.0631 0.9070
vn 0.4043 0.5141 0.7565
vn 0.5419 0.1953 0.8174
vn 0.3570 0.0183 0.9339
vn 0.5596 -0.2576 0.7877
vn -0.1164 -0.3243 0.9388
vn -0.2059 -0.1572 -0.9659
vn 0.7959 -0.0823 -0.5998
vn -0.6104 0.4319 0.6640
vn 0.9108 -0.0484 0.4099
vn 0.8956 -0.0689 0.4395
vn -0.8084 -0.3274 0.4892
vn -0.5513 -0.7405 0.3843
vn 0.4520 -0.0983 -0.8866
vn 0.7112 -0.0699 -0.6995
s off
f 1/1/1 2/2/1 3/3/1
f 4/4/2 5/5/2 6/6/2
f 7/7/3 8/8/3 9/9/3
f 10/10/4 11/11/4 12/12/4
f 13/13/5 14/14/5 15/15/5
f 16/16/6 17/17/6 18/18/6
f 5/5/7 13/13/7 15/15/7
f 19/19/8 20/20/8 21/21/8
f 7/7/9 22/22/9 23/23/9
f 14/14/10 24/24/10 25/25/10
f 26/26/11 27/27/11 28/28/11
f 29/29/12 26/26/12 30/30/12
f 11/11/13 31/31/13 32/32/13
f 33/33/14 16/16/14 18/18/14
f 4/4/15 34/34/15 32/32/15
f 30/30/16 26/26/16 28/28/16
f 35/35/17 36/36/17 37/37/17
f 38/38/18 14/14/18 25/25/18
f 39/39/19 29/29/19 30/30/19
f 40/40/20 37/37/20 41/41/20
f 42/42/21 40/40/21 41/41/21
f 43/43/22 40/40/22 42/42/22
f 33/33/23 18/18/23 43/43/23
f 1/1/24 33/33/24 43/43/24
f 3/3/25 33/33/25 1/1/25
f 44/44/26 21/21/26 45/45/26
f 6/6/27 44/44/27 45/45/27
f 46/46/28 44/44/28 6/6/28
f 12/12/29 11/11/29 32/32/29
f 20/20/30 9/9/30 47/47/30
f 48/48/31 49/49/31 29/29/31
f 39/39/32 48/48/32 29/29/32
f 50/50/33 51/51/33 44/44/33
f 46/46/34 50/50/34 44/44/34
f 38/38/35 15/15/35 14/14/35
f 52/52/36 15/15/36 38/38/36
f 6/6/37 53/53/37 46/46/37
f 9/9/38 54/54/38 7/7/38
f 17/17/39 55/55/39 36/36/39
f 35/35/40 17/17/40 36/36/40
f 18/18/41 17/17/41 35/35/41
f 51/51/42 19/19/42 21/21/42
f 33/33/43 3/3/43 56/56/43
f 49/49/44 33/33/44 56/56/44
f 16/16/45 33/33/45 49/49/45
f 45/45/46 20/20/46 34/34/46
f 4/4/47 45/45/47 34/34/47
f 6/6/48 45/45/48 4/4/48
f 57/57/49 16/16/49 10/10/49
f 12/12/50 57/57/50 10/10/50
f 55/55/51 57/57/51 12/12/51
f 37/37/52 58/58/52 41/41/52
f 35/35/53 37/37/53 40/40/53
f 43/43/54 35/35/54 40/40/54
f 18/18/55 35/35/55 43/43/55
f 54/54/56 9/9/56 20/20/56
f 21/21/57 20/20/57 45/45/57
f 11/11/58 48/48/58 31/31/58
f 49/49/59 48/48/59 11/11/59
f 8/8/60 55/55/60 12/12/60
f 47/47/61 8/8/61 12/12/61
f 9/9/62 8/8/62 47/47/62
f 56/56/63 3/3/63 26/26/63
f 29/29/64 56/56/64 26/26/64
f 49/49/65 56/56/65 29/29/65
f 26/26/66 2/2/66 27/27/66
f 3/3/67 2/2/67 26/26/67
f 51/51/68 21/21/68 44/44/68
f 15/15/69 52/52/69 53/53/69
f 50/50/70 46/46/70 53/53/70
f 43/43/71 59/59/71 1/1/71
f 54/54/72 19/19/72 22/22/72
f 7/7/73 54/54/73 22/22/73
f 36/36/74 23/23/74 37/37/74
f 19/19/75 54/54/75 20/20/75
f 28/28/76 24/24/76 30/30/76
f 47/47/77 12/12/77 32/32/77
f 34/34/78 47/47/78 32/32/78
f 20/20/79 47/47/79 34/34/79
f 31/31/80 48/48/80 13/13/80
f 5/5/81 31/31/81 13/13/81
f 32/32/82 31/31/82 5/5/82
f 57/57/83 55/55/83 17/17/83
f 16/16/84 57/57/84 17/17/84
f 39/39/85 24/24/85 14/14/85
f 13/13/86 39/39/86 14/14/86
f 48/48/87 39/39/87 13/13/87
f 10/10/88 49/49/88 11/11/88
f 16/16/89 49/49/89 10/10/89
f 36/36/90 55/55/90 8/8/90
f 7/7/91 36/36/91 8/8/91
f 23/23/92 36/36/92 7/7/92
f 60/60/93 61/61/93 23/23/93
f 22/22/94 60/60/94 23/23/94
f 19/19/95 60/60/95 22/22/95
f 30/30/96 24/24/96 39/39/96
f 42/42/97 59/59/97 43/43/97
f 32/32/98 5/5/98 4/4/98
f 23/23/99 61/61/99 58/58/99
f 37/37/100 23/23/100 58/58/100
f 15/15/101 53/53/101 6/6/101
f 5/5/102 15/15/102 6/6/102
f 1/1/103 62/62/103 2/2/103
f 59/59/104 62/62/104 1/1/104
