# Blender v2.79 (sub 0) OBJ File: ''
# www.blender.org
o rock_pilar_1
v -0.968160 -8.332603 -1.712015
v -1.266079 -4.507321 -1.115464
v -0.750170 -3.724363 -1.663518
v 1.493320 -8.332571 -1.290745
v 1.072071 -8.332575 -1.650414
v 0.691350 -4.085423 -1.285177
v -1.231260 -5.443515 0.029669
v -1.326109 -6.560462 0.601312
v -0.404080 -4.321272 0.816696
v 1.357020 -4.929533 0.500603
v 1.511700 -8.332581 0.650152
v 1.681730 -8.332575 0.260369
v -0.251560 -1.547804 0.761236
v 1.484351 -8.332575 -0.585636
v 1.333150 -4.761549 -1.071429
v -0.580950 -0.850157 -0.583621
v 0.862230 -8.332594 1.540652
v 1.001650 -1.774453 0.612924
v 0.665000 -4.726859 1.182363
v 0.462260 -0.738689 -0.578762
v -0.066860 0.000000 -0.782207
v 0.269431 -0.689103 0.809012
v 0.846500 -2.929938 -0.336127
v 0.203290 -3.683646 1.395153
v 0.241160 -3.697183 -1.697023
v 0.103190 -8.332588 -1.948513
v -0.493510 -8.332596 -1.844021
v 0.761430 -6.418194 1.333202
v 0.077691 -6.150211 1.852102
v 1.534220 -4.848326 0.170080
v -0.931600 -8.332617 1.218559
v -0.709960 -6.818297 1.020973
v -1.529120 -8.332615 -1.047567
v -1.681730 -8.332623 0.295937
v -1.315810 -8.332609 -1.544177
v 0.009110 -8.332606 1.948513
vt 0.781453 0.826959
vt 0.776430 0.790241
vt 0.782880 0.783135
vt 0.741772 0.746603
vt 0.791789 0.827929
vt 0.746360 0.787567
vt 0.717146 0.800136
vt 0.712576 0.811168
vt 0.706987 0.788797
vt 0.756203 0.787057
vt 0.755193 0.819567
vt 0.751572 0.819304
vt 0.707211 0.762520
vt 0.735361 0.747269
vt 0.742266 0.780671
vt 0.720130 0.755574
vt 0.765383 0.820061
vt 0.760225 0.757043
vt 0.765484 0.785431
vt 0.742467 0.820049
vt 0.719637 0.746603
vt 0.730356 0.822024
vt 0.737940 0.799176
vt 0.699494 0.782217
vt 0.751572 0.791350
vt 0.791789 0.787337
vt 0.786128 0.826864
vt 0.765303 0.801662
vt 0.773548 0.799280
vt 0.730336 0.780783
vt 0.705327 0.827548
vt 0.706240 0.812849
vt 0.774136 0.826549
vt 0.716461 0.828148
vt 0.777778 0.826956
vt 0.694964 0.826490
vn -0.7572 0.0427 -0.6518
vn 0.6444 0.1227 -0.7548
vn -0.8396 0.3023 0.4514
vn 0.9150 0.0591 0.3991
vn -0.7255 0.0536 0.6861
vn 0.9989 0.0440 0.0127
vn -0.8503 0.2283 -0.4743
vn 0.8064 0.0625 0.5881
vn 0.7089 0.0548 0.7032
vn 0.7979 0.5962 0.0896
vn -0.9742 0.1593 0.1598
vn 0.9409 0.1304 -0.3126
vn -0.9317 0.1745 0.3187
vn -0.3882 0.1853 0.9028
vn 0.7540 0.2163 -0.6203
vn -0.1722 0.0585 -0.9833
vn -0.2679 0.0228 -0.9632
vn 0.6290 0.1164 0.7687
vn 0.8701 0.0807 0.4863
vn 0.7012 0.1132 0.7040
vn -0.4997 0.1836 0.8465
vn -0.9937 0.0699 0.0873
vn 0.3842 0.0738 -0.9203
vn -0.7751 0.0469 0.6302
vn -0.4323 0.1060 -0.8955
vn -0.9722 0.1667 0.1645
vn -0.7457 0.0528 0.6642
vn 0.2924 0.1079 -0.9502
vn -0.0393 0.2369 -0.9707
vn 0.4247 0.1245 0.8967
vn -0.7122 0.5364 0.4527
vn -0.7619 0.1553 0.6288
vn 0.6019 0.1049 0.7916
vn 0.9437 0.3036 -0.1316
vn 0.9732 0.0353 -0.2271
vn 0.8751 0.0495 0.4813
vn 0.8331 0.5447 0.0963
vn -0.7175 0.0533 0.6945
vn 0.5877 0.2054 -0.7826
vn -0.0348 0.0372 -0.9987
vn 0.4312 0.0263 0.9019
vn 0.8898 0.2124 -0.4040
vn 0.7132 0.1025 0.6934
vn -0.5194 0.1327 0.8442
vn -0.9834 0.1430 -0.1117
vn -0.9174 0.0561 -0.3940
vn -0.6020 0.1893 0.7758
vn 0.6838 0.0192 -0.7294
vn -0.7145 0.2825 -0.6401
vn 0.6464 0.1328 0.7514
vn -0.8027 0.4664 0.3716
vn -0.7738 0.1452 0.6166
vn 0.6280 0.1107 0.7703
vn 0.6555 0.4248 -0.6244
vn 0.9872 0.0202 -0.1585
s off
f 1/1/1 2/2/1 3/3/1
f 4/4/2 5/5/2 6/6/2
f 7/7/3 8/8/3 9/9/3
f 10/10/4 11/11/4 12/12/4
f 13/13/5 7/7/5 9/9/5
f 14/14/6 4/4/6 15/15/6
f 3/3/7 2/2/7 16/16/7
f 17/17/8 11/11/8 10/10/8
f 10/10/9 18/18/9 19/19/9
f 20/20/10 21/21/10 22/22/10
f 16/16/11 2/2/11 7/7/11
f 20/20/12 18/18/12 23/23/12
f 13/13/13 16/16/13 7/7/13
f 24/24/14 22/22/14 13/13/14
f 6/6/15 25/25/15 21/21/15
f 25/25/16 26/26/16 27/27/16
f 27/27/17 1/1/17 3/3/17
f 17/17/18 28/28/18 29/29/18
f 18/18/19 10/10/19 30/30/19
f 28/28/20 17/17/20 10/10/20
f 8/8/21 31/31/21 32/32/21
f 7/7/22 2/2/22 33/33/22
f 15/15/23 4/4/23 6/6/23
f 31/31/24 8/8/24 34/34/24
f 2/2/25 1/1/25 35/35/25
f 7/7/26 34/34/26 8/8/26
f 36/36/27 29/29/27 32/32/27
f 6/6/28 5/5/28 26/26/28
f 21/21/29 25/25/29 3/3/29
f 19/19/30 18/18/30 22/22/30
f 21/21/31 16/16/31 13/13/31
f 29/29/32 24/24/32 9/9/32
f 28/28/33 19/19/33 24/24/33
f 23/23/34 30/30/34 15/15/34
f 30/30/35 12/12/35 14/14/35
f 30/30/36 10/10/36 12/12/36
f 18/18/37 20/20/37 22/22/37
f 6/6/12 20/20/12 23/23/12
f 9/9/38 24/24/38 13/13/38
f 20/20/39 6/6/39 21/21/39
f 3/3/40 25/25/40 27/27/40
f 36/36/41 17/17/41 29/29/41
f 23/23/42 18/18/42 30/30/42
f 19/19/43 28/28/43 10/10/43
f 9/9/44 8/8/44 32/32/44
f 34/34/45 7/7/45 33/33/45
f 33/33/46 2/2/46 35/35/46
f 31/31/47 36/36/47 32/32/47
f 25/25/48 6/6/48 26/26/48
f 16/16/49 21/21/49 3/3/49
f 24/24/50 19/19/50 22/22/50
f 22/22/51 21/21/51 13/13/51
f 32/32/52 29/29/52 9/9/52
f 29/29/53 28/28/53 24/24/53
f 6/6/54 23/23/54 15/15/54
f 15/15/55 30/30/55 14/14/55
