# Blender v2.79 (sub 0) OBJ File: ''
# www.blender.org
o rock_pilar__9
v 3.494904 -4.945079 0.426694
v 3.803792 -2.550918 -0.580915
v 3.388251 -1.716379 0.624766
v 0.393447 -4.945046 3.503925
v 2.052749 -4.945057 2.573144
v 1.380927 -2.384092 1.876684
v 1.063156 -2.947726 -2.201435
v 0.362762 -3.583302 -2.759866
v -1.067821 -2.473185 -2.490255
v -2.432117 -2.480500 -0.401515
v -2.782300 -4.945076 0.144544
v -1.861224 -4.945076 0.367954
v -1.036991 0.000001 -2.526235
v -0.487708 -4.945063 1.772535
v -0.120507 -2.785034 1.998564
v 1.982565 -0.045401 -1.273355
v -3.926929 -4.945096 -1.822646
v -2.226348 -0.757379 0.068865
v -3.281819 -2.362055 -1.380136
v 0.971346 -0.343385 0.486864
v 1.388588 -0.155654 0.429696
v -2.044711 -0.158981 -1.447665
v -0.491035 -1.414909 0.698795
v -2.514085 -1.995097 -2.760285
v 2.601463 -2.000058 1.541655
v 2.211966 -4.945069 1.298925
v 3.192018 -4.945069 1.372625
v -3.796770 -3.600103 -2.400226
v -2.664579 -3.211215 -2.320956
v -1.778377 -2.830079 0.870005
v -1.524587 -4.945115 -3.503926
v -1.319960 -3.800294 -3.250466
v 3.270714 -4.945091 -0.757036
v 0.196938 -4.945112 -3.073616
v 3.926929 -4.945084 0.085334
v -3.211859 -4.945109 -3.068936
vt 0.797291 0.680518
vt 0.800835 0.702385
vt 0.795844 0.709905
vt 0.763305 0.744424
vt 0.775490 0.726721
vt 0.777409 0.703056
vt 0.759139 0.707626
vt 0.755854 0.713467
vt 0.751226 0.703151
vt 0.746329 0.741153
vt 0.806457 0.715514
vt 0.810023 0.715068
vt 0.811189 0.680367
vt 0.785528 0.726058
vt 0.783062 0.706736
vt 0.750547 0.739813
vt 0.763305 0.726087
vt 0.810612 0.715068
vt 0.805484 0.703424
vt 0.779108 0.683567
vt 0.757362 0.740924
vt 0.791696 0.680367
vt 0.784836 0.693371
vt 0.745771 0.698680
vt 0.772969 0.699361
vt 0.741553 0.749476
vt 0.772176 0.725834
vt 0.809118 0.715068
vt 0.745714 0.709859
vt 0.790094 0.706249
vt 0.748043 0.725945
vt 0.757362 0.739595
vt 0.768727 0.726087
vt 0.754731 0.726019
vt 0.799011 0.680367
vt 0.742627 0.725836
vn 0.9478 0.0118 0.3185
vn 0.4595 0.3433 0.8191
vn 0.2237 0.4925 -0.8411
vn -0.2287 0.2415 0.9431
vn 0.1308 -0.0161 -0.9913
vn -0.8864 0.1035 0.4511
vn 0.8181 0.5646 -0.1088
vn -0.8416 0.2281 0.4897
vn -0.7574 -0.0862 0.6472
vn -0.2882 0.8005 0.5256
vn 0.4924 0.1197 -0.8621
vn -0.1702 0.4095 0.8963
vn 0.3798 0.1704 -0.9092
vn -0.6515 0.5443 -0.5285
vn 0.0588 0.5435 0.8373
vn -0.0748 -0.0721 0.9946
vn 0.9523 0.0128 0.3049
vn 0.2009 -0.4029 -0.8929
vn -0.8911 -0.0174 0.4534
vn -0.8589 0.2700 0.4352
vn 0.2564 0.1650 -0.9524
vn 0.5138 -0.0514 -0.8564
vn -0.0816 0.5567 0.8267
vn 0.2381 0.1904 -0.9524
vn 0.6014 0.2427 0.7612
vn 0.5473 0.1240 -0.8277
vn -0.3579 0.4628 -0.8110
vn 0.9520 0.2821 0.1190
vn 0.4570 0.6600 0.5963
vn -0.8673 0.4897 0.0894
vn -0.0103 0.9981 0.0610
vn 0.0605 -0.3458 -0.9364
vn -0.7790 0.5587 -0.2848
vn -0.4877 0.5278 0.6954
vn -0.7083 -0.1367 0.6926
vn -0.8948 -0.0696 0.4409
vn -0.1647 0.9241 0.3449
vn -0.2539 0.5091 0.8224
vn 0.1782 -0.0165 -0.9839
vn -0.1292 0.5403 0.8315
vn 0.7373 0.1096 0.6666
vn -0.7794 0.4389 -0.4472
vn -0.2182 0.3104 0.9252
vn -0.7512 -0.2046 0.6275
vn 0.1934 0.4597 -0.8667
vn 0.5996 0.0874 -0.7955
vn 0.7823 -0.1293 -0.6094
vn -0.2417 0.2507 -0.9374
vn 0.2971 -0.1174 0.9476
vn 0.5799 0.7746 0.2524
vn -0.8249 0.4528 -0.3385
vn -0.0537 0.9939 0.0964
vn -0.3226 0.5159 -0.7936
vn 0.1858 -0.3541 -0.9166
vn -0.1182 0.6664 0.7362
vn -0.5629 0.0092 0.8265
s off
f 1/1/1 2/2/1 3/3/1
f 4/4/2 5/5/2 6/6/2
f 7/7/3 8/8/3 9/9/3
f 10/10/4 11/11/4 12/12/4
f 13/13/5 7/7/5 9/9/5
f 14/14/6 4/4/6 15/15/6
f 3/3/7 2/2/7 16/16/7
f 17/17/8 11/11/8 10/10/8
f 10/10/9 18/18/9 19/19/9
f 20/20/10 21/21/10 22/22/10
f 16/16/11 2/2/11 7/7/11
f 20/20/12 18/18/12 23/23/12
f 13/13/13 16/16/13 7/7/13
f 24/24/14 22/22/14 13/13/14
f 6/6/15 25/25/15 21/21/15
f 25/25/16 26/26/16 27/27/16
f 27/27/17 1/1/17 3/3/17
f 17/17/18 28/28/18 29/29/18
f 18/18/19 10/10/19 30/30/19
f 28/28/20 17/17/20 10/10/20
f 8/8/21 31/31/21 32/32/21
f 7/7/22 2/2/22 33/33/22
f 15/15/23 4/4/23 6/6/23
f 31/31/24 8/8/24 34/34/24
f 2/2/25 1/1/25 35/35/25
f 7/7/26 34/34/26 8/8/26
f 36/36/27 29/29/27 32/32/27
f 6/6/28 5/5/28 26/26/28
f 21/21/29 25/25/29 3/3/29
f 19/19/30 18/18/30 22/22/30
f 21/21/31 16/16/31 13/13/31
f 29/29/32 24/24/32 9/9/32
f 28/28/33 19/19/33 24/24/33
f 23/23/34 30/30/34 15/15/34
f 30/30/35 12/12/35 14/14/35
f 30/30/36 10/10/36 12/12/36
f 18/18/37 20/20/37 22/22/37
f 6/6/38 20/20/38 23/23/38
f 9/9/39 24/24/39 13/13/39
f 20/20/40 6/6/40 21/21/40
f 3/3/41 25/25/41 27/27/41
f 36/36/42 17/17/42 29/29/42
f 23/23/43 18/18/43 30/30/43
f 19/19/44 28/28/44 10/10/44
f 9/9/45 8/8/45 32/32/45
f 34/34/46 7/7/46 33/33/46
f 33/33/47 2/2/47 35/35/47
f 31/31/48 36/36/48 32/32/48
f 25/25/49 6/6/49 26/26/49
f 16/16/50 21/21/50 3/3/50
f 24/24/51 19/19/51 22/22/51
f 22/22/52 21/21/52 13/13/52
f 32/32/53 29/29/53 9/9/53
f 29/29/54 28/28/54 24/24/54
f 6/6/55 23/23/55 15/15/55
f 15/15/56 30/30/56 14/14/56
