# Blender v2.79 (sub 0) OBJ File: ''
# www.blender.org
o rock_small_41
v -0.291713 0.200964 0.332062
v -0.488417 0.000000 0.021293
v -0.313739 0.000002 0.305608
v -0.237933 0.000005 -0.444010
v -0.493667 0.000001 -0.421509
v -0.416095 0.194342 -0.237650
v 0.197451 0.000010 0.347211
v 0.184037 0.141291 0.292515
v 0.115438 0.000009 0.513906
v 0.195297 0.150903 -0.361268
v 0.127461 0.178274 -0.422181
v 0.078982 0.177788 0.406445
v 0.296115 0.123910 -0.008765
v -0.208185 0.000003 0.503139
v 0.295159 0.000014 -0.433208
v 0.107212 0.000011 -0.565145
v 0.369274 0.000013 0.205551
v 0.483328 0.000016 -0.033996
vt 0.707277 0.624261
vt 0.747133 0.628364
vt 0.747124 0.640847
vt 0.717826 0.651820
vt 0.708650 0.653226
vt 0.707914 0.646066
vt 0.726254 0.619243
vt 0.724901 0.621499
vt 0.739600 0.656092
vt 0.730874 0.645200
vt 0.728757 0.648035
vt 0.719873 0.618305
vt 0.731617 0.631468
vt 0.747133 0.649226
vt 0.736454 0.646790
vt 0.730998 0.653226
vt 0.733517 0.622903
vt 0.739600 0.630628
vn -0.8518 0.0245 0.5233
vn -0.0627 0.6990 -0.7124
vn 0.8692 0.2481 0.4277
vn 0.3575 0.9337 0.0215
vn -0.9322 0.3617 0.0111
vn 0.1999 0.9797 0.0178
vn -0.8246 0.5384 0.1738
vn -0.1180 0.6148 0.7798
vn 0.4946 0.5089 -0.7046
vn 0.5987 0.3380 0.7262
vn -0.2593 0.6220 -0.7388
vn 0.7212 0.4606 0.5174
vn 0.0238 0.9996 -0.0168
vn 0.5567 0.7873 0.2651
vn 0.3472 0.9376 0.0198
vn 0.7798 0.6005 -0.1770
vn -0.8814 0.0346 0.4710
vn 0.6432 0.6319 -0.4324
vn 0.6519 0.7314 0.2003
vn -0.2432 0.5925 -0.7680
vn -0.0286 0.5128 0.8580
vn 0.0616 0.9981 0.0042
vn 0.5127 0.8239 -0.2416
s off
f 1/1/1 2/2/1 3/3/1
f 4/4/2 5/5/2 6/6/2
f 7/7/3 8/8/3 9/9/3
f 10/10/4 11/11/4 12/12/4
f 6/6/5 5/5/5 2/2/5
f 10/10/6 8/8/6 13/13/6
f 1/1/7 6/6/7 2/2/7
f 14/14/8 12/12/8 1/1/8
f 15/15/9 16/16/9 11/11/9
f 8/8/10 7/7/10 17/17/10
f 11/11/11 16/16/11 4/4/11
f 9/9/12 8/8/12 12/12/12
f 11/11/13 6/6/13 1/1/13
f 13/13/14 17/17/14 18/18/14
f 8/8/15 10/10/15 12/12/15
f 15/15/16 10/10/16 13/13/16
f 3/3/17 14/14/17 1/1/17
f 10/10/18 15/15/18 11/11/18
f 13/13/19 8/8/19 17/17/19
f 6/6/20 11/11/20 4/4/20
f 14/14/21 9/9/21 12/12/21
f 12/12/22 11/11/22 1/1/22
f 15/15/23 13/13/23 18/18/23
