# Blender v2.79 (sub 0) OBJ File: ''
# www.blender.org
o rock_pilar__2
v 3.648196 -4.945092 -1.649251
v 3.322006 -2.550930 -2.651391
v 3.674735 -1.716392 -1.425860
v 2.878156 -4.945054 2.651390
v 3.701306 -4.945067 0.936140
v 2.751286 -2.384100 0.752190
v 0.147825 -2.947731 -2.402820
v -0.746279 -3.583306 -2.457391
v -1.762168 -2.473185 -1.414690
v -1.678490 -2.480499 1.078740
v -1.651311 -4.945075 1.726860
v -0.769115 -4.945076 1.380428
v -1.757604 0.000001 -1.461850
v 1.162106 -4.945067 1.740709
v 1.592506 -2.785038 1.714690
v 1.433585 -0.045408 -2.171580
v -3.718498 -4.945091 0.774609
v -1.239790 -0.757379 1.345460
v -2.936239 -2.362051 0.766070
v 1.617445 -0.343392 -0.149909
v 1.926075 -0.155663 -0.436460
v -1.962571 -0.158981 -0.000070
v 0.542396 -1.414913 0.863860
v -3.100980 -1.995094 -0.804631
v 3.557676 -2.000070 -0.223350
v 3.099415 -4.945080 -0.198191
v 3.943856 -4.945082 -0.701031
v -3.943856 -3.600098 0.227110
v -2.971699 -3.211211 -0.358600
v -0.412815 -2.830079 1.743710
v -2.718475 -4.945115 -1.981821
v -2.405360 -3.800293 -1.891970
v 2.784516 -4.945103 -2.489211
v -1.062283 -4.945116 -2.618881
v 3.805616 -4.945097 -2.176881
v -3.849420 -4.945105 -0.656271
vt 0.797291 0.680518
vt 0.800835 0.702385
vt 0.795844 0.709905
vt 0.763305 0.744424
vt 0.775490 0.726721
vt 0.777409 0.703056
vt 0.759139 0.707626
vt 0.755854 0.713467
vt 0.751226 0.703151
vt 0.746329 0.741153
vt 0.806457 0.715514
vt 0.810023 0.715068
vt 0.811189 0.680367
vt 0.785528 0.726058
vt 0.783062 0.706736
vt 0.750547 0.739813
vt 0.763305 0.726087
vt 0.810612 0.715068
vt 0.805484 0.703424
vt 0.779108 0.683567
vt 0.757362 0.740924
vt 0.791696 0.680367
vt 0.784836 0.693371
vt 0.745771 0.698680
vt 0.772969 0.699361
vt 0.741553 0.749476
vt 0.772176 0.725834
vt 0.809118 0.715068
vt 0.745714 0.709859
vt 0.790094 0.706249
vt 0.748043 0.725945
vt 0.757362 0.739595
vt 0.768727 0.726087
vt 0.754731 0.726019
vt 0.799011 0.680367
vt 0.742627 0.725836
vn 0.9588 0.0118 -0.2840
vn 0.8468 0.3433 0.4064
vn -0.3002 0.4925 -0.8169
vn 0.3547 0.2414 0.9033
vn -0.4626 -0.0160 -0.8864
vn -0.4662 0.1035 0.8786
vn 0.6070 0.5646 -0.5592
vn -0.4074 0.2281 0.8843
vn -0.2480 -0.0862 0.9649
vn 0.0662 0.8005 0.5957
vn -0.0924 0.1197 -0.9885
vn 0.3757 0.4095 0.8313
vn -0.2116 0.1704 -0.9624
vn -0.8369 0.5443 -0.0581
vn 0.5293 0.5435 0.6515
vn 0.5103 -0.0721 0.8570
vn 0.9546 0.0127 -0.2976
vn -0.3487 -0.4029 -0.8462
vn -0.4688 -0.0173 0.8831
vn -0.4529 0.2700 0.8497
vn -0.3374 0.1650 -0.9268
vn -0.0716 -0.0514 -0.9961
vn 0.4083 0.5567 0.7234
vn -0.3524 0.1904 -0.9163
vn 0.9296 0.2427 0.2773
vn -0.0276 0.1240 -0.9919
vn -0.7589 0.4628 -0.4581
vn 0.8475 0.2821 -0.4497
vn 0.7166 0.6600 0.2255
vn -0.6584 0.4897 0.5715
vn 0.0266 0.9981 0.0559
vn -0.4885 -0.3458 -0.8011
vn -0.8012 0.5587 0.2145
vn 0.0004 0.5278 0.8494
vn -0.1817 -0.1367 0.9738
vn -0.4790 -0.0696 0.8751
vn 0.0634 0.9241 0.3769
vn 0.2648 0.5091 0.8189
vn -0.4195 -0.0165 -0.9076
vn 0.3721 0.5403 0.7547
vn 0.9865 0.1096 0.1219
vn -0.8948 0.4389 0.0819
vn 0.3530 0.3104 0.8826
vn -0.2543 -0.2046 0.9453
vn -0.3398 0.4597 -0.8205
vn 0.0336 0.0874 -0.9956
vn 0.2900 -0.1293 -0.9482
vn -0.7364 0.2507 -0.6283
vn 0.7876 -0.1174 0.6049
vn 0.6197 0.7746 -0.1267
vn -0.8696 0.4528 0.1970
vn 0.0115 0.9939 0.1097
vn -0.7200 0.5159 -0.4641
vn -0.3746 -0.3541 -0.8569
vn 0.3263 0.6664 0.6704
vn 0.0143 0.0092 0.9999
s off
f 1/1/1 2/2/1 3/3/1
f 4/4/2 5/5/2 6/6/2
f 7/7/3 8/8/3 9/9/3
f 10/10/4 11/11/4 12/12/4
f 13/13/5 7/7/5 9/9/5
f 14/14/6 4/4/6 15/15/6
f 3/3/7 2/2/7 16/16/7
f 17/17/8 11/11/8 10/10/8
f 10/10/9 18/18/9 19/19/9
f 20/20/10 21/21/10 22/22/10
f 16/16/11 2/2/11 7/7/11
f 20/20/12 18/18/12 23/23/12
f 13/13/13 16/16/13 7/7/13
f 24/24/14 22/22/14 13/13/14
f 6/6/15 25/25/15 21/21/15
f 25/25/16 26/26/16 27/27/16
f 27/27/17 1/1/17 3/3/17
f 17/17/18 28/28/18 29/29/18
f 18/18/19 10/10/19 30/30/19
f 28/28/20 17/17/20 10/10/20
f 8/8/21 31/31/21 32/32/21
f 7/7/22 2/2/22 33/33/22
f 15/15/23 4/4/23 6/6/23
f 31/31/24 8/8/24 34/34/24
f 2/2/25 1/1/25 35/35/25
f 7/7/26 34/34/26 8/8/26
f 36/36/27 29/29/27 32/32/27
f 6/6/28 5/5/28 26/26/28
f 21/21/29 25/25/29 3/3/29
f 19/19/30 18/18/30 22/22/30
f 21/21/31 16/16/31 13/13/31
f 29/29/32 24/24/32 9/9/32
f 28/28/33 19/19/33 24/24/33
f 23/23/34 30/30/34 15/15/34
f 30/30/35 12/12/35 14/14/35
f 30/30/36 10/10/36 12/12/36
f 18/18/37 20/20/37 22/22/37
f 6/6/38 20/20/38 23/23/38
f 9/9/39 24/24/39 13/13/39
f 20/20/40 6/6/40 21/21/40
f 3/3/41 25/25/41 27/27/41
f 36/36/42 17/17/42 29/29/42
f 23/23/43 18/18/43 30/30/43
f 19/19/44 28/28/44 10/10/44
f 9/9/45 8/8/45 32/32/45
f 34/34/46 7/7/46 33/33/46
f 33/33/47 2/2/47 35/35/47
f 31/31/48 36/36/48 32/32/48
f 25/25/49 6/6/49 26/26/49
f 16/16/50 21/21/50 3/3/50
f 24/24/51 19/19/51 22/22/51
f 22/22/52 21/21/52 13/13/52
f 32/32/53 29/29/53 9/9/53
f 29/29/54 28/28/54 24/24/54
f 6/6/55 23/23/55 15/15/55
f 15/15/56 30/30/56 14/14/56
