# Blender v2.79 (sub 0) OBJ File: ''
# www.blender.org
o rock_pilar_
v -1.530079 -6.636406 -4.350231
v -2.453350 -3.589806 -3.094660
v -1.047299 -2.966229 -4.151860
v 3.971670 -6.636366 -2.401570
v 3.144441 -6.636374 -3.397390
v 2.122381 -3.253782 -2.707500
v -2.828350 -4.335419 -0.443370
v -3.274000 -5.224994 0.835529
v -1.236040 -3.441614 1.698101
v 2.945720 -3.926050 1.670080
v 3.242521 -6.636363 2.075981
v 3.789081 -6.636361 1.245830
v -0.862729 -1.232722 1.631001
v 3.670740 -6.636365 -0.781140
v 3.515600 -3.792269 -1.960090
v -1.086789 -0.677099 -1.597379
v 1.392740 -6.636372 3.868810
v 2.082580 -1.413227 1.787541
v 1.080881 -3.764632 2.965240
v 1.313951 -0.588314 -1.171529
v 0.176170 0.000001 -1.850409
v 0.318220 -0.548815 1.948130
v 2.102481 -2.333504 -0.459980
v -0.067090 -2.933779 3.271811
v 1.249231 -2.944577 -3.834990
v 1.031431 -6.636389 -4.469090
v -0.384400 -6.636397 -4.465600
v 1.243040 -5.111674 3.350960
v -0.537989 -4.898242 4.274330
v 3.485200 -3.861375 0.979260
v -2.610730 -6.636400 2.413959
v -2.021729 -5.430340 2.046989
v -3.086150 -6.636413 -3.042861
v -3.971670 -6.636413 -0.009180
v -2.397489 -6.636411 -4.101861
v -0.734259 -6.636384 4.469089
vt 0.781453 0.826959
vt 0.776430 0.790241
vt 0.782880 0.783135
vt 0.741772 0.746603
vt 0.791789 0.827929
vt 0.746360 0.787567
vt 0.717146 0.800136
vt 0.712576 0.811168
vt 0.706987 0.788797
vt 0.756203 0.787057
vt 0.755193 0.819567
vt 0.751572 0.819304
vt 0.707211 0.762520
vt 0.735361 0.747269
vt 0.742266 0.780671
vt 0.720130 0.755574
vt 0.765383 0.820061
vt 0.760225 0.757043
vt 0.765484 0.785431
vt 0.742467 0.820049
vt 0.719637 0.746603
vt 0.730356 0.822024
vt 0.737940 0.799176
vt 0.699494 0.782217
vt 0.751572 0.791350
vt 0.791789 0.787337
vt 0.786128 0.826864
vt 0.765303 0.801662
vt 0.773548 0.799280
vt 0.730336 0.780783
vt 0.705327 0.827548
vt 0.706240 0.812849
vt 0.774136 0.826549
vt 0.716461 0.828148
vt 0.777778 0.826956
vt 0.694964 0.826490
vn -0.6310 0.1244 -0.7658
vn 0.7231 0.3410 -0.6007
vn -0.6943 0.6813 0.2319
vn 0.8229 0.1713 0.5418
vn -0.8227 0.1556 0.5468
vn 0.9751 0.1283 0.1811
vn -0.6407 0.5668 -0.5178
vn 0.6845 0.1807 0.7063
vn 0.5724 0.1590 0.8044
vn 0.4005 0.9089 0.1163
vn -0.9038 0.4279 -0.0075
vn 0.9225 0.3600 -0.1393
vn -0.8761 0.4613 0.1402
vn -0.4773 0.4841 0.7334
vn 0.7286 0.5451 -0.4148
vn -0.0024 0.1694 -0.9855
vn -0.1000 0.0668 -0.9927
vn 0.4657 0.3253 0.8230
vn 0.7562 0.2311 0.6122
vn 0.5453 0.3171 0.7760
vn -0.5677 0.4806 0.6683
vn -0.9761 0.2014 -0.0814
vn 0.5244 0.2121 -0.8247
vn -0.8637 0.1366 0.4851
vn -0.2627 0.2985 -0.9175
vn -0.8958 0.4445 -0.0029
vn -0.8389 0.1532 0.5222
vn 0.4310 0.3035 -0.8498
vn 0.1058 0.5820 -0.8063
vn 0.2516 0.3456 0.9040
vn -0.4361 0.8813 0.1819
vn -0.7884 0.4189 0.4505
vn 0.4404 0.2957 0.8477
vn 0.7301 0.6830 0.0236
vn 0.9930 0.1032 -0.0580
vn 0.7733 0.1440 0.6174
vn 0.4458 0.8855 0.1311
vn -0.8163 0.1549 0.5564
vn 0.6196 0.5244 -0.5840
vn 0.1349 0.1086 -0.9849
vn 0.2708 0.0769 0.9596
vn 0.8158 0.5377 -0.2129
vn 0.5628 0.2895 0.7743
vn -0.6155 0.3656 0.6982
vn -0.8837 0.3904 -0.2580
vn -0.8272 0.1627 -0.5379
vn -0.6427 0.4924 0.5869
vn 0.7968 0.0563 -0.6016
vn -0.4695 0.6539 -0.5933
vn 0.4781 0.3659 0.7985
vn -0.5242 0.8398 0.1409
vn -0.8052 0.3956 0.4418
vn 0.4666 0.3108 0.8281
vn 0.4882 0.8092 -0.3270
vn 0.9982 0.0593 0.0117
s off
f 1/1/1 2/2/1 3/3/1
f 4/4/2 5/5/2 6/6/2
f 7/7/3 8/8/3 9/9/3
f 10/10/4 11/11/4 12/12/4
f 13/13/5 7/7/5 9/9/5
f 14/14/6 4/4/6 15/15/6
f 3/3/7 2/2/7 16/16/7
f 17/17/8 11/11/8 10/10/8
f 10/10/9 18/18/9 19/19/9
f 20/20/10 21/21/10 22/22/10
f 16/16/11 2/2/11 7/7/11
f 20/20/12 18/18/12 23/23/12
f 13/13/13 16/16/13 7/7/13
f 24/24/14 22/22/14 13/13/14
f 6/6/15 25/25/15 21/21/15
f 25/25/16 26/26/16 27/27/16
f 27/27/17 1/1/17 3/3/17
f 17/17/18 28/28/18 29/29/18
f 18/18/19 10/10/19 30/30/19
f 28/28/20 17/17/20 10/10/20
f 8/8/21 31/31/21 32/32/21
f 7/7/22 2/2/22 33/33/22
f 15/15/23 4/4/23 6/6/23
f 31/31/24 8/8/24 34/34/24
f 2/2/25 1/1/25 35/35/25
f 7/7/26 34/34/26 8/8/26
f 36/36/27 29/29/27 32/32/27
f 6/6/28 5/5/28 26/26/28
f 21/21/29 25/25/29 3/3/29
f 19/19/30 18/18/30 22/22/30
f 21/21/31 16/16/31 13/13/31
f 29/29/32 24/24/32 9/9/32
f 28/28/33 19/19/33 24/24/33
f 23/23/34 30/30/34 15/15/34
f 30/30/35 12/12/35 14/14/35
f 30/30/36 10/10/36 12/12/36
f 18/18/37 20/20/37 22/22/37
f 6/6/12 20/20/12 23/23/12
f 9/9/38 24/24/38 13/13/38
f 20/20/39 6/6/39 21/21/39
f 3/3/40 25/25/40 27/27/40
f 36/36/41 17/17/41 29/29/41
f 23/23/42 18/18/42 30/30/42
f 19/19/43 28/28/43 10/10/43
f 9/9/44 8/8/44 32/32/44
f 34/34/45 7/7/45 33/33/45
f 33/33/46 2/2/46 35/35/46
f 31/31/47 36/36/47 32/32/47
f 25/25/48 6/6/48 26/26/48
f 16/16/49 21/21/49 3/3/49
f 24/24/50 19/19/50 22/22/50
f 22/22/51 21/21/51 13/13/51
f 32/32/52 29/29/52 9/9/52
f 29/29/53 28/28/53 24/24/53
f 6/6/54 23/23/54 15/15/54
f 15/15/55 30/30/55 14/14/55
