# Blender v2.79 (sub 0) OBJ File: ''
# www.blender.org
o rock_small_81
v -0.266873 0.413126 0.440313
v -0.426435 0.000263 0.009949
v -0.324363 0.000223 0.205241
v -0.244208 0.000218 -0.359089
v -0.395417 0.000268 -0.366699
v -0.315089 0.438545 -0.181070
v 0.095044 0.000082 0.277062
v 0.186572 0.215854 0.272446
v 0.003117 0.000104 0.511587
v 0.153609 0.232845 -0.273054
v 0.100391 0.398389 -0.317638
v 0.015594 0.217959 0.322138
v 0.459484 0.198458 -0.034651
v -0.122871 0.000150 0.367262
v 0.253195 0.000055 -0.364965
v 0.087643 0.000114 -0.481271
v 0.350789 0.000007 0.056021
v 0.389817 -0.000000 -0.083576
vt 0.765726 0.759652
vt 0.699516 0.729295
vt 0.700416 0.719503
vt 0.742149 0.759674
vt 0.742871 0.766554
vt 0.740345 0.713988
vt 0.742871 0.765033
vt 0.753454 0.762198
vt 0.759698 0.759652
vt 0.712469 0.752329
vt 0.720309 0.709183
vt 0.765804 0.709183
vt 0.753454 0.743265
vt 0.701873 0.710521
vt 0.702972 0.753944
vt 0.699167 0.746503
vt 0.743829 0.749237
vt 0.743651 0.743824
vn -0.8777 -0.1389 0.4587
vn 0.0466 0.3823 -0.9229
vn 0.8682 -0.3610 0.3404
vn 0.9099 0.3517 0.2198
vn -0.9739 0.2125 -0.0802
vn 0.0921 0.9954 0.0254
vn -0.9561 0.2802 0.0857
vn 0.3632 -0.0380 0.9309
vn 0.5479 0.3028 -0.7798
vn 0.6326 -0.2527 0.7321
vn -0.3211 0.3687 -0.8723
vn 0.2234 0.6323 0.7418
vn 0.1067 0.9938 0.0324
vn 0.8928 -0.3749 0.2496
vn 0.0210 0.9993 0.0299
vn 0.5664 0.5007 -0.6545
vn -0.5904 -0.3357 0.7340
vn 0.9291 0.3387 0.1487
vn 0.7407 -0.1023 0.6640
vn -0.2668 0.3253 -0.9072
vn -0.6416 0.5239 0.5602
vn 0.6230 0.7274 0.2877
vn 0.8807 -0.2037 -0.4276
s off
f 1/1/1 2/2/1 3/3/1
f 4/4/2 5/5/2 6/6/2
f 7/7/3 8/8/3 9/9/3
f 10/10/4 11/11/4 12/12/4
f 6/6/5 5/5/5 2/2/5
f 10/10/6 8/8/6 13/13/6
f 1/1/7 6/6/7 2/2/7
f 14/14/8 12/12/8 1/1/8
f 15/15/9 16/16/9 11/11/9
f 8/8/10 7/7/10 17/17/10
f 11/11/11 16/16/11 4/4/11
f 9/9/12 8/8/12 12/12/12
f 11/11/13 6/6/13 1/1/13
f 13/13/14 17/17/14 18/18/14
f 8/8/15 10/10/15 12/12/15
f 15/15/16 10/10/16 13/13/16
f 3/3/17 14/14/17 1/1/17
f 10/10/18 15/15/18 11/11/18
f 13/13/19 8/8/19 17/17/19
f 6/6/20 11/11/20 4/4/20
f 14/14/21 9/9/21 12/12/21
f 12/12/22 11/11/22 1/1/22
f 15/15/23 13/13/23 18/18/23
