# Blender v2.79 (sub 0) OBJ File: ''
# www.blender.org
o Rock_4
v -0.314514 0.000342 -0.879123
v -0.590040 0.528098 -0.705844
v -0.236016 0.555290 -0.866373
v 0.809018 0.000012 -0.419492
v 0.647074 0.000007 -0.634518
v 0.432504 0.480735 -0.504726
v -0.822921 0.518371 -0.095870
v -0.761814 0.217276 0.194600
v -0.532130 0.726634 0.549017
v 0.555602 0.376909 0.415984
v 0.613200 0.000028 0.503241
v 0.734945 0.034932 0.336240
v -0.405217 1.043250 0.499152
v 0.730456 0.000018 -0.085921
v 0.709943 0.396805 -0.332334
v -0.447248 1.196987 -0.431941
v 0.211241 0.000031 0.857268
v 0.375937 0.751894 0.432778
v 0.154469 0.402450 0.667986
v 0.226173 0.938276 -0.208138
v -0.054929 1.151562 -0.412000
v -0.031662 0.973581 0.488833
v 0.401467 0.614335 -0.034866
v -0.098162 0.542676 0.734734
v 0.257178 0.524276 -0.745618
v 0.218835 0.000000 -0.878044
v -0.075342 0.000178 -0.891549
v 0.185272 0.200516 0.748256
v -0.194116 0.232798 0.922898
v 0.674496 0.386531 0.277850
v -0.607110 0.001653 0.516835
v -0.517810 0.199069 0.479986
v -0.650766 0.000352 -0.622954
v -0.864522 0.000039 -0.001321
v -0.497034 0.000125 -0.835898
v -0.236475 0.000030 0.960861
vt 0.724185 0.766582
vt 0.730079 0.775378
vt 0.723488 0.776085
vt 0.731076 0.772957
vt 0.736864 0.746114
vt 0.746048 0.747255
vt 0.723727 0.757591
vt 0.720153 0.751402
vt 0.730410 0.746923
vt 0.752818 0.766918
vt 0.752488 0.760268
vt 0.755806 0.761103
vt 0.738878 0.780997
vt 0.737326 0.754376
vt 0.743024 0.752080
vt 0.746986 0.787853
vt 0.743456 0.760251
vt 0.750436 0.773548
vt 0.744761 0.767769
vt 0.755149 0.750666
vt 0.752395 0.785483
vt 0.744274 0.778451
vt 0.749247 0.753735
vt 0.740650 0.770708
vt 0.747552 0.742389
vt 0.739605 0.738566
vt 0.720280 0.766985
vt 0.744275 0.764054
vt 0.737248 0.765278
vt 0.744349 0.759965
vt 0.718622 0.744664
vt 0.722210 0.745707
vt 0.731076 0.766601
vt 0.715646 0.754047
vt 0.727363 0.766353
vt 0.722172 0.735957
vn -0.4167 0.0798 -0.9055
vn 0.7090 0.4606 -0.5340
vn -0.9181 0.1624 0.3615
vn 0.7551 0.2552 0.6038
vn -0.8787 0.3945 0.2688
vn 0.9558 0.1892 0.2251
vn -0.4014 0.4192 -0.8143
vn 0.6373 0.2649 0.7236
vn 0.5292 0.2168 0.8204
vn 0.5252 0.8373 0.1519
vn -0.8852 0.3252 -0.3328
vn 0.8941 0.4406 -0.0808
vn -0.8405 0.5272 0.1250
vn 0.1134 0.4792 0.8704
vn 0.7089 0.5721 -0.4125
vn 0.0446 0.2416 -0.9694
vn -0.0518 0.0303 -0.9982
vn 0.4007 0.4772 0.7822
vn 0.7094 0.3116 0.6323
vn 0.4547 0.4702 0.7564
vn -0.6767 0.4191 0.6053
vn -0.9333 0.0516 -0.3555
vn 0.5676 0.3093 -0.7630
vn -0.8954 0.0222 0.4447
vn -0.2262 0.1952 -0.9543
vn -0.9315 0.1363 0.3372
vn -0.7930 0.2359 0.5616
vn 0.4499 0.4144 -0.7911
vn 0.2317 0.5441 -0.8064
vn 0.3247 0.3778 0.8671
vn 0.1057 0.9819 0.1574
vn -0.1252 0.5430 0.8304
vn 0.4312 0.3893 0.8140
vn 0.6065 0.7936 0.0486
vn 0.9859 0.1655 -0.0242
vn 0.7291 0.2323 0.6438
vn 0.4877 0.8622 0.1368
vn 0.8922 0.4464 -0.0680
vn -0.2849 0.2595 0.9228
vn 0.7190 0.5762 -0.3886
vn 0.2430 0.1140 -0.9633
vn 0.2239 0.1171 0.9676
vn 0.7317 0.6637 -0.1553
vn 0.5086 0.3839 0.7707
vn -0.7592 -0.1047 0.6424
vn -0.9455 0.0166 -0.3251
vn -0.8108 0.0014 -0.5853
vn -0.6949 0.4229 0.5816
vn 0.8129 0.0861 -0.5761
vn 0.1083 0.5815 -0.8063
vn 0.4334 0.3953 0.8099
vn 0.1851 0.9650 0.1859
vn -0.7998 -0.0992 0.5921
vn 0.4137 0.3755 0.8294
vn 0.4074 0.8851 -0.2248
vn 0.9943 0.0882 0.0592
s off
f 1/1/1 2/2/1 3/3/1
f 4/4/2 5/5/2 6/6/2
f 7/7/3 8/8/3 9/9/3
f 10/10/4 11/11/4 12/12/4
f 13/13/5 7/7/5 9/9/5
f 14/14/6 4/4/6 15/15/6
f 3/3/7 2/2/7 16/16/7
f 17/17/8 11/11/8 10/10/8
f 10/10/9 18/18/9 19/19/9
f 20/20/10 21/21/10 22/22/10
f 16/16/11 2/2/11 7/7/11
f 20/20/12 18/18/12 23/23/12
f 13/13/13 16/16/13 7/7/13
f 24/24/14 22/22/14 13/13/14
f 6/6/15 25/25/15 21/21/15
f 25/25/16 26/26/16 27/27/16
f 27/27/17 1/1/17 3/3/17
f 17/17/18 28/28/18 29/29/18
f 18/18/19 10/10/19 30/30/19
f 28/28/20 17/17/20 10/10/20
f 8/8/21 31/31/21 32/32/21
f 7/7/22 2/2/22 33/33/22
f 15/15/23 4/4/23 6/6/23
f 31/31/24 8/8/24 34/34/24
f 2/2/25 1/1/25 35/35/25
f 7/7/26 34/34/26 8/8/26
f 36/36/27 29/29/27 32/32/27
f 6/6/28 5/5/28 26/26/28
f 21/21/29 25/25/29 3/3/29
f 19/19/30 18/18/30 22/22/30
f 21/21/31 16/16/31 13/13/31
f 29/29/32 24/24/32 9/9/32
f 28/28/33 19/19/33 24/24/33
f 23/23/34 30/30/34 15/15/34
f 30/30/35 12/12/35 14/14/35
f 30/30/36 10/10/36 12/12/36
f 18/18/37 20/20/37 22/22/37
f 6/6/38 20/20/38 23/23/38
f 9/9/39 24/24/39 13/13/39
f 20/20/40 6/6/40 21/21/40
f 3/3/41 25/25/41 27/27/41
f 36/36/42 17/17/42 29/29/42
f 23/23/43 18/18/43 30/30/43
f 19/19/44 28/28/44 10/10/44
f 9/9/45 8/8/45 32/32/45
f 34/34/46 7/7/46 33/33/46
f 33/33/47 2/2/47 35/35/47
f 31/31/48 36/36/48 32/32/48
f 25/25/49 6/6/49 26/26/49
f 16/16/50 21/21/50 3/3/50
f 24/24/51 19/19/51 22/22/51
f 22/22/52 21/21/52 13/13/52
f 32/32/53 29/29/53 9/9/53
f 29/29/54 28/28/54 24/24/54
f 6/6/55 23/23/55 15/15/55
f 15/15/56 30/30/56 14/14/56
