# Blender v2.79 (sub 0) OBJ File: ''
# www.blender.org
o rock_small_
v -0.360506 0.200963 -0.255730
v -0.071794 -0.000000 -0.483581
v -0.336476 0.000002 -0.280379
v 0.416962 0.000007 -0.282667
v 0.368079 0.000002 -0.534692
v 0.193249 0.194343 -0.438484
v -0.324879 0.000011 0.232370
v -0.271869 0.141292 0.213359
v -0.499176 0.000009 0.168073
v 0.379561 0.150905 0.156806
v 0.433117 0.178276 0.083022
v -0.396072 0.177788 0.120678
v 0.039405 0.123912 0.293612
v -0.522005 0.000003 -0.154922
v 0.461464 0.000017 0.248675
v 0.573212 0.000014 0.048066
v -0.166175 0.000015 0.388587
v 0.083902 0.000019 0.477202
vt 0.707277 0.624261
vt 0.747133 0.628364
vt 0.747124 0.640847
vt 0.717826 0.651820
vt 0.708650 0.653226
vt 0.707914 0.646066
vt 0.726254 0.619243
vt 0.724901 0.621499
vt 0.739600 0.656092
vt 0.730874 0.645200
vt 0.728757 0.648035
vt 0.719873 0.618305
vt 0.731617 0.631468
vt 0.747133 0.649226
vt 0.736454 0.646790
vt 0.730998 0.653226
vt 0.733517 0.622903
vt 0.739600 0.630628
vn -0.6088 0.0245 -0.7930
vn 0.7020 0.6990 -0.1362
vn -0.3353 0.2481 0.9089
vn 0.0157 0.9337 0.3578
vn -0.1076 0.3617 -0.9261
vn 0.0030 0.9797 0.2007
vn -0.2583 0.5384 -0.8021
vn -0.7878 0.6148 -0.0366
vn 0.7520 0.5089 0.4189
vn -0.6602 0.3380 0.6707
vn 0.7080 0.6220 -0.3345
vn -0.4399 0.4606 0.7709
vn 0.0192 0.9996 0.0220
vn -0.2060 0.7873 0.5812
vn 0.0163 0.9376 0.3473
vn 0.2569 0.6005 0.7572
vn -0.5598 0.0346 -0.8279
vn 0.4967 0.6319 0.5950
vn -0.1317 0.7314 0.6691
vn 0.7386 0.5925 -0.3215
vn -0.8564 0.5128 0.0605
vn 0.0022 0.9981 0.0617
vn 0.2935 0.8239 0.4849
s off
f 1/1/1 2/2/1 3/3/1
f 4/4/2 5/5/2 6/6/2
f 7/7/3 8/8/3 9/9/3
f 10/10/4 11/11/4 12/12/4
f 6/6/5 5/5/5 2/2/5
f 10/10/6 8/8/6 13/13/6
f 1/1/7 6/6/7 2/2/7
f 14/14/8 12/12/8 1/1/8
f 15/15/9 16/16/9 11/11/9
f 8/8/10 7/7/10 17/17/10
f 11/11/11 16/16/11 4/4/11
f 9/9/12 8/8/12 12/12/12
f 11/11/13 6/6/13 1/1/13
f 13/13/14 17/17/14 18/18/14
f 8/8/15 10/10/15 12/12/15
f 15/15/16 10/10/16 13/13/16
f 3/3/17 14/14/17 1/1/17
f 10/10/18 15/15/18 11/11/18
f 13/13/19 8/8/19 17/17/19
f 6/6/20 11/11/20 4/4/20
f 14/14/21 9/9/21 12/12/21
f 12/12/22 11/11/22 1/1/22
f 15/15/23 13/13/23 18/18/23
