# Blender v2.79 (sub 0) OBJ File: ''
# www.blender.org
o rock_small_71
v -0.322721 0.351316 0.114255
v -0.321837 0.000240 -0.376856
v -0.361142 0.000242 -0.099992
v 0.144389 0.000090 -0.457351
v 0.030915 0.000132 -0.585372
v -0.023148 0.334802 -0.250594
v -0.106343 0.000144 0.278163
v -0.027487 0.176610 0.335434
v -0.344788 0.000219 0.370528
v 0.160082 0.195737 -0.012277
v 0.156810 0.358906 -0.070155
v -0.128549 0.188067 0.209596
v 0.271502 0.091465 0.248685
v -0.352405 0.000229 0.164478
v 0.334962 0.000012 -0.042159
v 0.305337 0.000030 -0.255300
v 0.233076 0.000032 0.292049
v 0.351341 0.000000 0.136867
vt 0.797630 0.735740
vt 0.740827 0.699078
vt 0.751748 0.688773
vt 0.797630 0.706484
vt 0.797307 0.715738
vt 0.762458 0.714136
vt 0.808550 0.695174
vt 0.797630 0.698510
vt 0.778815 0.751972
vt 0.765370 0.736045
vt 0.773600 0.716920
vt 0.749413 0.721118
vt 0.802000 0.716258
vt 0.762896 0.680974
vt 0.765370 0.721118
vt 0.797630 0.692339
vt 0.806191 0.713935
vt 0.808550 0.722071
vn -0.9719 0.1906 -0.1380
vn 0.5889 0.6171 -0.5218
vn 0.3275 -0.4209 0.8459
vn 0.5799 0.2827 0.7641
vn -0.4013 0.6146 -0.6792
vn 0.3271 0.9174 0.2269
vn -0.5534 0.6771 -0.4850
vn -0.3228 0.1607 0.9327
vn 0.8926 0.4334 -0.1240
vn -0.0392 -0.2926 0.9554
vn 0.6573 0.5421 -0.5235
vn -0.4100 0.8179 0.4037
vn -0.0483 0.9952 -0.0847
vn 0.7945 -0.0467 0.6055
vn 0.0268 0.9972 0.0693
vn 0.7411 0.6696 -0.0489
vn -0.9955 0.0889 0.0329
vn 0.4788 0.3020 0.8243
vn 0.3406 0.2822 0.8969
vn 0.5112 0.6222 -0.5930
vn -0.6454 0.7634 0.0239
vn 0.2495 0.6922 0.6772
vn 0.7110 0.7001 -0.0650
s off
f 1/1/1 2/2/1 3/3/1
f 4/4/2 5/5/2 6/6/2
f 7/7/3 8/8/3 9/9/3
f 10/10/4 11/11/4 12/12/4
f 6/6/5 5/5/5 2/2/5
f 10/10/6 8/8/6 13/13/6
f 1/1/7 6/6/7 2/2/7
f 14/14/8 12/12/8 1/1/8
f 15/15/9 16/16/9 11/11/9
f 8/8/10 7/7/10 17/17/10
f 11/11/11 16/16/11 4/4/11
f 9/9/12 8/8/12 12/12/12
f 11/11/13 6/6/13 1/1/13
f 13/13/14 17/17/14 18/18/14
f 8/8/15 10/10/15 12/12/15
f 15/15/16 10/10/16 13/13/16
f 3/3/17 14/14/17 1/1/17
f 10/10/18 15/15/18 11/11/18
f 13/13/19 8/8/19 17/17/19
f 6/6/20 11/11/20 4/4/20
f 14/14/21 9/9/21 12/12/21
f 12/12/22 11/11/22 1/1/22
f 15/15/23 13/13/23 18/18/23
