# Blender v2.79 (sub 0) OBJ File: ''
# www.blender.org
o rock_pilar__7
v -4.423335 -6.636395 1.097002
v -3.302104 -3.589794 2.179466
v -4.162345 -2.966220 0.644978
v -1.758346 -6.636382 -4.095723
v -2.855605 -6.636384 -3.408681
v -2.308166 -3.253790 -2.303759
v -0.724515 -4.335413 2.904699
v 0.483525 -5.224990 3.516933
v 1.610185 -3.441619 1.612207
v 2.140115 -3.926072 -2.535934
v 2.581965 -6.636386 -2.775938
v 1.832116 -6.636384 -3.428329
v 1.593474 -1.232728 1.233276
v -0.192525 -6.636384 -3.581374
v -1.381625 -3.792284 -3.584859
v -1.635945 -0.677097 1.024789
v 4.112084 -6.636392 -0.703581
v 2.141425 -1.413245 -1.664847
v 3.174994 -3.764649 -0.515024
v -0.893725 -0.588322 -1.297716
v -1.718274 -0.000001 -0.260644
v 2.065274 -0.548827 0.105172
v -0.083365 -2.333519 -1.984304
v 3.325736 -2.933793 0.663577
v -3.542026 -2.944577 -1.588776
v -4.199514 -6.636388 -1.457475
v -4.384885 -6.636391 -0.053831
v 3.578895 -5.111693 -0.624287
v 4.256495 -4.898256 1.263975
v 1.527406 -3.861397 -3.162724
v 2.136306 -6.636401 3.070100
v 1.851165 -5.430343 2.437415
v -3.335164 -6.636398 2.813535
v -0.446685 -6.636403 4.095722
v -4.292865 -6.636396 1.989789
v 4.423335 -6.636397 1.484471
vt 0.781453 0.826959
vt 0.776430 0.790241
vt 0.782880 0.783135
vt 0.741772 0.746603
vt 0.791789 0.827929
vt 0.746360 0.787567
vt 0.717146 0.800136
vt 0.712576 0.811168
vt 0.706987 0.788797
vt 0.756203 0.787057
vt 0.755193 0.819567
vt 0.751572 0.819304
vt 0.707211 0.762520
vt 0.735361 0.747269
vt 0.742266 0.780671
vt 0.720130 0.755574
vt 0.765383 0.820061
vt 0.760225 0.757043
vt 0.765484 0.785431
vt 0.742467 0.820049
vt 0.719637 0.746603
vt 0.730356 0.822024
vt 0.737940 0.799176
vt 0.699494 0.782217
vt 0.751572 0.791350
vt 0.791789 0.787337
vt 0.786128 0.826864
vt 0.765303 0.801662
vt 0.773548 0.799280
vt 0.730336 0.780783
vt 0.705327 0.827548
vt 0.706240 0.812849
vt 0.774136 0.826549
vt 0.716461 0.828148
vt 0.777778 0.826956
vt 0.694964 0.826490
vn -0.8431 0.1244 0.5232
vn -0.4989 0.3410 -0.7968
vn 0.1373 0.6813 0.7191
vn 0.6467 0.1712 -0.7433
vn 0.4322 0.1556 0.8883
vn 0.3095 0.1282 -0.9422
vn -0.5987 0.5668 0.5660
vn 0.7912 0.1807 -0.5842
vn 0.8735 0.1590 -0.4600
vn 0.1687 0.9089 -0.3814
vn -0.1280 0.4279 0.8947
vn -0.0150 0.3600 -0.9328
vn 0.0221 0.4613 0.8870
vn 0.6631 0.4841 0.5708
vn -0.3139 0.5451 -0.7774
vn -0.9771 0.1694 -0.1290
vn -0.9972 0.0668 -0.0333
vn 0.8778 0.3253 -0.3518
vn 0.7075 0.2311 -0.6678
vn 0.8418 0.3171 -0.4369
vn 0.5866 0.4806 0.6518
vn -0.2109 0.2014 0.9565
vn -0.7474 0.2121 -0.6297
vn 0.3656 0.1366 0.9207
vn -0.9444 0.2985 0.1380
vn -0.1224 0.4445 0.8874
vn 0.4057 0.1532 0.9011
vn -0.7847 0.3035 -0.5405
vn -0.7850 0.5820 -0.2124
vn 0.9295 0.3456 -0.1288
vn 0.1222 0.8813 0.4564
vn 0.3413 0.4189 0.8415
vn 0.8988 0.2957 -0.3234
vn 0.1208 0.6830 -0.7204
vn 0.0750 0.1032 -0.9918
vn 0.7150 0.1440 -0.6841
vn 0.1893 0.8855 -0.4243
vn 0.4426 0.1549 0.8833
vn -0.4961 0.5244 -0.6920
vn -0.9581 0.1086 -0.2650
vn 0.9871 0.0769 -0.1404
vn -0.1022 0.5377 -0.8369
vn 0.8424 0.2895 -0.4545
vn 0.6099 0.3656 0.7031
vn -0.3735 0.3904 0.8414
vn -0.6434 0.1627 0.7480
vn 0.4959 0.4925 0.7152
vn -0.4900 0.0563 -0.8699
vn -0.6506 0.6539 0.3861
vn 0.8551 0.3659 -0.3673
vn 0.0698 0.8398 0.5383
vn 0.3305 0.3956 0.8569
vn 0.8829 0.3108 -0.3520
vn -0.2590 0.8092 -0.5274
vn 0.1447 0.0593 -0.9877
s off
f 1/1/1 2/2/1 3/3/1
f 4/4/2 5/5/2 6/6/2
f 7/7/3 8/8/3 9/9/3
f 10/10/4 11/11/4 12/12/4
f 13/13/5 7/7/5 9/9/5
f 14/14/6 4/4/6 15/15/6
f 3/3/7 2/2/7 16/16/7
f 17/17/8 11/11/8 10/10/8
f 10/10/9 18/18/9 19/19/9
f 20/20/10 21/21/10 22/22/10
f 16/16/11 2/2/11 7/7/11
f 20/20/12 18/18/12 23/23/12
f 13/13/13 16/16/13 7/7/13
f 24/24/14 22/22/14 13/13/14
f 6/6/15 25/25/15 21/21/15
f 25/25/16 26/26/16 27/27/16
f 27/27/17 1/1/17 3/3/17
f 17/17/18 28/28/18 29/29/18
f 18/18/19 10/10/19 30/30/19
f 28/28/20 17/17/20 10/10/20
f 8/8/21 31/31/21 32/32/21
f 7/7/22 2/2/22 33/33/22
f 15/15/23 4/4/23 6/6/23
f 31/31/24 8/8/24 34/34/24
f 2/2/25 1/1/25 35/35/25
f 7/7/26 34/34/26 8/8/26
f 36/36/27 29/29/27 32/32/27
f 6/6/28 5/5/28 26/26/28
f 21/21/29 25/25/29 3/3/29
f 19/19/30 18/18/30 22/22/30
f 21/21/31 16/16/31 13/13/31
f 29/29/32 24/24/32 9/9/32
f 28/28/33 19/19/33 24/24/33
f 23/23/34 30/30/34 15/15/34
f 30/30/35 12/12/35 14/14/35
f 30/30/36 10/10/36 12/12/36
f 18/18/37 20/20/37 22/22/37
f 6/6/12 20/20/12 23/23/12
f 9/9/38 24/24/38 13/13/38
f 20/20/39 6/6/39 21/21/39
f 3/3/40 25/25/40 27/27/40
f 36/36/41 17/17/41 29/29/41
f 23/23/42 18/18/42 30/30/42
f 19/19/43 28/28/43 10/10/43
f 9/9/44 8/8/44 32/32/44
f 34/34/45 7/7/45 33/33/45
f 33/33/46 2/2/46 35/35/46
f 31/31/47 36/36/47 32/32/47
f 25/25/48 6/6/48 26/26/48
f 16/16/49 21/21/49 3/3/49
f 24/24/50 19/19/50 22/22/50
f 22/22/51 21/21/51 13/13/51
f 32/32/52 29/29/52 9/9/52
f 29/29/53 28/28/53 24/24/53
f 6/6/54 23/23/54 15/15/54
f 15/15/55 30/30/55 14/14/55
