# Blender v2.79 (sub 0) OBJ File: ''
# www.blender.org
o rock_pilar__8
v 3.000730 -6.617002 0.313815
v 2.773106 -3.305439 -0.417185
v 2.780961 -2.627624 0.527725
v 0.577538 -6.616970 2.784695
v 1.249807 -6.616972 2.571194
v 1.283068 -2.940192 1.905045
v 1.004578 -4.115917 -1.788755
v 0.106048 -5.082866 -2.419066
v -1.006843 -3.144387 -1.741655
v -2.090093 -3.670956 0.540785
v -2.461312 -6.616993 0.533814
v -2.006453 -6.616985 1.174524
v -1.056932 -0.173925 -1.511165
v -0.512452 -6.616978 1.949974
v -0.125862 -3.525522 2.016644
v 1.331967 -0.139417 -0.295394
v -3.267013 -6.617013 -1.213396
v -1.947103 -0.939590 0.023406
v -2.532662 -3.495507 -1.008426
v 0.391148 -0.042915 0.831865
v 1.181297 -0.083061 0.495275
v -1.597423 0.000001 -1.001234
v -0.330413 -1.939891 0.965295
v -2.101692 -2.592393 -1.525465
v 1.979608 -2.604090 1.665805
v 2.290697 -6.616984 1.673944
v 2.707363 -6.616994 0.934105
v -2.853803 -4.959707 -1.080165
v -2.104802 -4.727711 -1.798235
v -1.733903 -3.600651 1.119925
v -1.160683 -6.617034 -2.784696
v -1.051283 -5.306078 -2.312836
v 2.804262 -6.617013 -0.632805
v 0.676798 -6.617028 -2.109546
v 3.267013 -6.617008 -0.115376
v -2.072103 -6.617022 -1.904346
vt 0.679468 0.759311
vt 0.676671 0.729482
vt 0.681063 0.723632
vt 0.739780 0.760813
vt 0.695217 0.759129
vt 0.738940 0.727204
vt 0.710211 0.736601
vt 0.705238 0.744967
vt 0.703474 0.726901
vt 0.721525 0.732644
vt 0.719441 0.759063
vt 0.751792 0.760811
vt 0.735563 0.701876
vt 0.745041 0.760698
vt 0.744127 0.733126
vt 0.676670 0.769398
vt 0.725958 0.759920
vt 0.754223 0.709537
vt 0.728058 0.731763
vt 0.744357 0.701102
vt 0.680463 0.771448
vt 0.684748 0.759524
vt 0.746574 0.718370
vt 0.700114 0.721358
vt 0.754353 0.750132
vt 0.687937 0.759333
vt 0.683240 0.759333
vt 0.727012 0.744955
vt 0.732501 0.742941
vt 0.751455 0.733869
vt 0.698904 0.758135
vt 0.737435 0.748008
vt 0.716932 0.759505
vt 0.706768 0.758863
vt 0.676670 0.759321
vt 0.732343 0.759847
vn 0.9971 0.0576 -0.0496
vn 0.2984 0.1675 0.9396
vn 0.1794 0.4148 -0.8921
vn -0.8113 0.1009 0.5759
vn 0.0141 0.0776 -0.9969
vn -0.6069 0.0588 0.7926
vn 0.8645 0.4050 -0.2977
vn -0.9023 0.1127 0.4161
vn -0.9532 0.1037 0.2840
vn 0.0415 0.9989 -0.0217
vn 0.5123 0.2646 -0.8170
vn -0.3909 0.2117 0.8958
vn 0.4314 0.2858 -0.8557
vn -0.6136 0.2694 -0.7422
vn 0.0924 0.4432 0.8916
vn 0.8693 0.0684 0.4896
vn 0.9037 0.0269 0.4274
vn -0.7097 0.2305 -0.6658
vn -0.8509 0.1404 0.5063
vn -0.9382 0.2119 0.2735
vn -0.1517 0.3459 -0.9259
vn 0.5951 0.0578 -0.8015
vn -0.0213 0.2365 0.9714
vn 0.3442 -0.0610 -0.9369
vn 0.8371 0.1722 0.5193
vn 0.5482 0.0353 -0.8356
vn -0.4190 0.0437 -0.9069
vn 0.6474 0.1302 0.7510
vn 0.7286 0.4645 0.5034
vn -0.9619 0.2575 -0.0921
vn 0.0199 0.9975 -0.0673
vn -0.1308 0.1258 -0.9834
vn -0.9018 0.2161 -0.3742
vn -0.4504 0.4523 0.7698
vn -0.4599 0.0576 0.8861
vn -0.8533 0.0864 0.5143
vn -0.4561 0.7280 0.5119
vn -0.3906 0.2116 0.8959
vn -0.1573 0.0738 -0.9848
vn 0.3735 0.4211 0.8265
vn 0.8173 0.0435 0.5746
vn -0.5002 0.0399 -0.8650
vn -0.3063 0.3416 0.8885
vn -0.9378 0.1915 0.2896
vn -0.1372 0.2557 -0.9570
vn 0.5700 0.0306 -0.8211
vn 0.7444 0.0504 -0.6658
vn -0.6623 0.3021 -0.6857
vn 0.3134 0.0262 0.9493
vn 0.8395 0.5293 0.1223
vn -0.9109 0.2444 -0.3324
vn 0.1322 0.9725 -0.1916
vn -0.3114 0.2487 -0.9171
vn -0.7037 0.0910 -0.7046
vn -0.1551 0.5320 0.8325
vn -0.4881 0.0422 0.8718
s off
f 1/1/1 2/2/1 3/3/1
f 4/4/2 5/5/2 6/6/2
f 7/7/3 8/8/3 9/9/3
f 10/10/4 11/11/4 12/12/4
f 13/13/5 7/7/5 9/9/5
f 14/14/6 4/4/6 15/15/6
f 3/3/7 2/2/7 16/16/7
f 17/17/8 11/11/8 10/10/8
f 10/10/9 18/18/9 19/19/9
f 20/20/10 21/21/10 22/22/10
f 16/16/11 2/2/11 7/7/11
f 20/20/12 18/18/12 23/23/12
f 13/13/13 16/16/13 7/7/13
f 24/24/14 22/22/14 13/13/14
f 6/6/15 25/25/15 21/21/15
f 25/25/16 26/26/16 27/27/16
f 27/27/17 1/1/17 3/3/17
f 17/17/18 28/28/18 29/29/18
f 18/18/19 10/10/19 30/30/19
f 28/28/20 17/17/20 10/10/20
f 8/8/21 31/31/21 32/32/21
f 7/7/22 2/2/22 33/33/22
f 15/15/23 4/4/23 6/6/23
f 31/31/24 8/8/24 34/34/24
f 2/2/25 1/1/25 35/35/25
f 7/7/26 34/34/26 8/8/26
f 36/36/27 29/29/27 32/32/27
f 6/6/28 5/5/28 26/26/28
f 21/21/29 25/25/29 3/3/29
f 19/19/30 18/18/30 22/22/30
f 21/21/31 16/16/31 13/13/31
f 29/29/32 24/24/32 9/9/32
f 28/28/33 19/19/33 24/24/33
f 23/23/34 30/30/34 15/15/34
f 30/30/35 12/12/35 14/14/35
f 30/30/36 10/10/36 12/12/36
f 18/18/37 20/20/37 22/22/37
f 6/6/38 20/20/38 23/23/38
f 9/9/39 24/24/39 13/13/39
f 20/20/40 6/6/40 21/21/40
f 3/3/41 25/25/41 27/27/41
f 36/36/42 17/17/42 29/29/42
f 23/23/43 18/18/43 30/30/43
f 19/19/44 28/28/44 10/10/44
f 9/9/45 8/8/45 32/32/45
f 34/34/46 7/7/46 33/33/46
f 33/33/47 2/2/47 35/35/47
f 31/31/48 36/36/48 32/32/48
f 25/25/49 6/6/49 26/26/49
f 16/16/50 21/21/50 3/3/50
f 24/24/51 19/19/51 22/22/51
f 22/22/52 21/21/52 13/13/52
f 32/32/53 29/29/53 9/9/53
f 29/29/54 28/28/54 24/24/54
f 6/6/55 23/23/55 15/15/55
f 15/15/56 30/30/56 14/14/56
