# Blender v2.79 (sub 0) OBJ File: ''
# www.blender.org
o rock_pilar__1
v 2.903369 -6.617012 -1.459916
v 2.297029 -3.305448 -1.927385
v 2.846428 -2.627632 -1.158574
v 2.340013 -6.616975 1.954714
v 2.767531 -6.616979 1.393685
v 2.411973 -2.940199 0.829375
v 0.061495 -4.115923 -2.033655
v -1.036072 -5.082870 -2.033195
v -1.557613 -3.144390 -0.839305
v -1.132616 -3.670955 1.651145
v -1.440444 -6.616991 1.858754
v -0.700009 -6.616985 2.121754
v -1.466164 -0.173926 -0.621884
v 0.968299 -6.616981 1.897904
v 1.323002 -3.525525 1.730325
v 1.187567 -0.139422 -0.999604
v -3.103830 -6.617010 0.891785
v -1.312890 -0.939588 1.145545
v -2.385040 -3.495506 0.637555
v 1.065341 -0.042918 0.463586
v 1.518601 -0.083066 -0.265925
v -1.615487 0.000000 0.106025
v 0.551469 -1.939893 0.987415
v -2.329435 -2.592393 -0.033244
v 2.844558 -2.604098 0.233325
v 3.103830 -6.616993 0.061234
v 3.019709 -6.617002 -0.783685
v -2.689092 -4.959705 0.763385
v -2.488717 -4.727711 -0.254686
v -0.508321 -3.600652 1.920455
v -2.282891 -6.617036 -1.604545
v -1.922207 -5.306081 -1.281225
v 2.198620 -6.617023 -2.121755
v -0.391104 -6.617034 -2.107846
v 2.874674 -6.617018 -1.964185
v -2.522940 -6.617022 -0.360326
vt 0.679468 0.759311
vt 0.676671 0.729482
vt 0.681063 0.723632
vt 0.739780 0.760813
vt 0.695217 0.759129
vt 0.738940 0.727204
vt 0.710211 0.736601
vt 0.705238 0.744967
vt 0.703474 0.726901
vt 0.721525 0.732644
vt 0.719441 0.759063
vt 0.751792 0.760811
vt 0.735563 0.701876
vt 0.745041 0.760698
vt 0.744127 0.733126
vt 0.676670 0.769398
vt 0.725958 0.759920
vt 0.754223 0.709537
vt 0.728058 0.731763
vt 0.744357 0.701102
vt 0.680463 0.771448
vt 0.684748 0.759524
vt 0.746574 0.718370
vt 0.700114 0.721358
vt 0.754353 0.750132
vt 0.687937 0.759333
vt 0.683240 0.759333
vt 0.727012 0.744955
vt 0.732501 0.742941
vt 0.751455 0.733869
vt 0.698904 0.758135
vt 0.737435 0.748008
vt 0.716932 0.759505
vt 0.706768 0.758863
vt 0.676670 0.759321
vt 0.732343 0.759847
vn 0.7875 0.0576 -0.6136
vn 0.7841 0.1675 0.5975
vn -0.3657 0.4148 -0.8332
vn -0.3330 0.1009 0.9375
vn -0.5613 0.0776 -0.8240
vn -0.0413 0.0588 0.9974
vn 0.5365 0.4050 -0.7404
vn -0.4994 0.1127 0.8590
vn -0.6169 0.1037 0.7802
vn 0.0215 0.9989 -0.0416
vn -0.0502 0.2646 -0.9630
vn 0.1948 0.2117 0.9577
vn -0.1387 0.2858 -0.9482
vn -0.9287 0.2694 -0.2549
vn 0.5880 0.4432 0.6766
vn 0.9928 0.0684 -0.0988
vn 0.9852 0.0269 -0.1695
vn -0.9634 0.2305 -0.1371
vn -0.4055 0.1404 0.9033
vn -0.6107 0.2119 0.7630
vn -0.6562 0.3459 -0.6706
vn 0.0265 0.0578 -0.9980
vn 0.5408 0.2365 0.8073
vn -0.2566 -0.0609 -0.9646
vn 0.9835 0.1722 -0.0560
vn -0.0316 0.0353 -0.9989
vn -0.8641 0.0437 -0.5015
vn 0.9613 0.1302 0.2426
vn 0.8856 0.4645 -0.0067
vn -0.8401 0.2575 0.4773
vn -0.0224 0.9975 -0.0665
vn -0.6721 0.1258 -0.7297
vn -0.9531 0.2161 0.2120
vn 0.0737 0.4523 0.8888
vn 0.1328 0.0576 0.9895
vn -0.4028 0.0864 0.9112
vn -0.0792 0.7280 0.6810
vn 0.1951 0.2116 0.9577
vn -0.6946 0.0738 -0.7156
vn 0.7806 0.4211 0.4618
vn 0.9991 0.0435 0.0006
vn -0.9064 0.0399 -0.4205
vn 0.2599 0.3416 0.9032
vn -0.6011 0.1915 0.7759
vn -0.6622 0.2557 -0.7044
vn -0.0054 0.0306 -0.9995
vn 0.2267 0.0504 -0.9727
vn -0.9360 0.3021 -0.1806
vn 0.8020 0.0262 0.5968
vn 0.7574 0.5293 -0.3824
vn -0.9365 0.2444 0.2514
vn -0.0018 0.9725 -0.2328
vn -0.7819 0.2487 -0.5716
vn -0.9808 0.0910 -0.1723
vn 0.3514 0.5320 0.7704
vn 0.1015 0.0422 0.9939
s off
f 1/1/1 2/2/1 3/3/1
f 4/4/2 5/5/2 6/6/2
f 7/7/3 8/8/3 9/9/3
f 10/10/4 11/11/4 12/12/4
f 13/13/5 7/7/5 9/9/5
f 14/14/6 4/4/6 15/15/6
f 3/3/7 2/2/7 16/16/7
f 17/17/8 11/11/8 10/10/8
f 10/10/9 18/18/9 19/19/9
f 20/20/10 21/21/10 22/22/10
f 16/16/11 2/2/11 7/7/11
f 20/20/12 18/18/12 23/23/12
f 13/13/13 16/16/13 7/7/13
f 24/24/14 22/22/14 13/13/14
f 6/6/15 25/25/15 21/21/15
f 25/25/16 26/26/16 27/27/16
f 27/27/17 1/1/17 3/3/17
f 17/17/18 28/28/18 29/29/18
f 18/18/19 10/10/19 30/30/19
f 28/28/20 17/17/20 10/10/20
f 8/8/21 31/31/21 32/32/21
f 7/7/22 2/2/22 33/33/22
f 15/15/23 4/4/23 6/6/23
f 31/31/24 8/8/24 34/34/24
f 2/2/25 1/1/25 35/35/25
f 7/7/26 34/34/26 8/8/26
f 36/36/27 29/29/27 32/32/27
f 6/6/28 5/5/28 26/26/28
f 21/21/29 25/25/29 3/3/29
f 19/19/30 18/18/30 22/22/30
f 21/21/31 16/16/31 13/13/31
f 29/29/32 24/24/32 9/9/32
f 28/28/33 19/19/33 24/24/33
f 23/23/34 30/30/34 15/15/34
f 30/30/35 12/12/35 14/14/35
f 30/30/36 10/10/36 12/12/36
f 18/18/37 20/20/37 22/22/37
f 6/6/38 20/20/38 23/23/38
f 9/9/39 24/24/39 13/13/39
f 20/20/40 6/6/40 21/21/40
f 3/3/41 25/25/41 27/27/41
f 36/36/42 17/17/42 29/29/42
f 23/23/43 18/18/43 30/30/43
f 19/19/44 28/28/44 10/10/44
f 9/9/45 8/8/45 32/32/45
f 34/34/46 7/7/46 33/33/46
f 33/33/47 2/2/47 35/35/47
f 31/31/48 36/36/48 32/32/48
f 25/25/49 6/6/49 26/26/49
f 16/16/50 21/21/50 3/3/50
f 24/24/51 19/19/51 22/22/51
f 22/22/52 21/21/52 13/13/52
f 32/32/53 29/29/53 9/9/53
f 29/29/54 28/28/54 24/24/54
f 6/6/55 23/23/55 15/15/55
f 15/15/56 30/30/56 14/14/56
