# Blender v2.79 (sub 0) OBJ File: ''
# www.blender.org
o rock_pilar_32
v -1.162764 -8.618059 -3.191453
v -2.035804 -4.445635 -3.004601
v -0.972205 -2.991252 -3.194221
v 2.393335 -8.618011 -2.165043
v 1.020336 -8.618029 -3.009223
v 0.781936 -4.154909 -2.224892
v -2.105045 -5.137153 -0.308176
v -2.229524 -6.244792 0.440422
v -1.440135 -4.310137 1.387957
v 0.668165 -4.322894 1.536358
v 1.216665 -8.618032 1.570375
v 1.002206 -8.618033 0.796612
v -1.479474 0.000000 1.379956
v 1.475336 -8.618026 -0.799023
v 1.491205 -4.853645 -1.163988
v -1.797314 -0.079142 -1.371289
v 0.232805 -8.618048 3.228608
v 0.931427 -1.319935 1.190111
v 0.294286 -4.116465 2.568702
v -0.077713 -0.598462 -1.348721
v -0.292065 -0.271298 -1.633934
v -0.265774 -0.277070 1.681001
v 0.682096 -2.465853 -0.353855
v -1.043635 -3.476943 2.569613
v 0.030746 -3.485636 -2.990012
v 0.011716 -8.618044 -2.601653
v -0.337845 -8.618048 -3.357332
v -0.248305 -6.274062 3.370421
v -0.656464 -5.596330 2.499846
v 1.339595 -4.932133 0.528269
v -2.001964 -8.618076 2.143977
v -1.898764 -6.622946 1.888024
v -1.946345 -8.618071 -2.537452
v -2.393335 -8.618080 0.692521
v -1.593524 -8.618065 -3.370422
v -0.984354 -8.618063 3.213300
vt 0.797291 0.680518
vt 0.800835 0.702385
vt 0.795844 0.709905
vt 0.763305 0.744424
vt 0.775490 0.726721
vt 0.777409 0.703056
vt 0.759139 0.707626
vt 0.755854 0.713467
vt 0.751226 0.703151
vt 0.746329 0.741153
vt 0.806457 0.715514
vt 0.810023 0.715068
vt 0.811189 0.680367
vt 0.785528 0.726058
vt 0.783062 0.706736
vt 0.750547 0.739813
vt 0.763305 0.726087
vt 0.810612 0.715068
vt 0.805484 0.703424
vt 0.779108 0.683567
vt 0.757362 0.740924
vt 0.791696 0.680367
vt 0.784836 0.693371
vt 0.745771 0.698680
vt 0.772969 0.699361
vt 0.741553 0.749476
vt 0.772176 0.725834
vt 0.809118 0.715068
vt 0.745714 0.709859
vt 0.790094 0.706249
vt 0.748043 0.725945
vt 0.757362 0.739595
vt 0.768727 0.726087
vt 0.754731 0.726019
vt 0.799011 0.680367
vt 0.742627 0.725836
vn -0.1831 0.0057 -0.9831
vn 0.5157 0.1749 -0.8387
vn -0.9346 0.2652 0.2370
vn 0.9567 0.1201 -0.2652
vn -0.9297 -0.0078 0.3683
vn 0.8289 0.0505 0.5571
vn -0.5671 0.3156 -0.7608
vn 0.8545 0.1131 0.5070
vn 0.9367 -0.0420 0.3476
vn 0.8387 0.5445 -0.0057
vn -0.9982 0.0585 -0.0106
vn 0.9272 0.2132 -0.3080
vn -0.9902 0.0838 0.1120
vn -0.1643 0.3008 0.9394
vn 0.7987 0.3002 -0.5215
vn 0.9070 -0.0351 -0.4196
vn -0.1971 0.0062 -0.9804
vn -0.9379 -0.2092 0.2768
vn 0.8299 -0.0084 0.5578
vn 0.8214 0.1351 0.5541
vn -0.9669 0.0811 0.2421
vn -0.9992 -0.0250 -0.0321
vn 0.8720 0.3098 -0.3790
vn -0.9613 0.0939 0.2592
vn 0.3809 0.1207 -0.9167
vn -0.9953 0.0606 -0.0758
vn -0.5842 0.2460 0.7734
vn -0.3709 0.1415 -0.9178
vn 0.3654 0.3927 -0.8439
vn 0.5534 0.2634 0.7901
vn 0.1192 0.9920 -0.0423
vn -0.8890 -0.1763 0.4226
vn 0.1494 0.3112 0.9385
vn 0.9522 0.2892 0.0987
vn 0.9566 -0.0669 0.2836
vn 0.8222 -0.0339 0.5681
vn 0.6468 0.7616 -0.0406
vn 0.9402 0.2764 -0.1993
vn -0.9463 -0.0080 0.3232
vn 0.8953 0.2980 -0.3311
vn 0.2245 0.0535 -0.9730
vn -0.0122 0.2310 0.9729
vn 0.9501 0.1568 -0.2698
vn 0.9288 -0.1011 0.3566
vn -0.9296 0.2441 0.2762
vn -0.9897 0.0426 -0.1370
vn -0.9190 -0.0633 -0.3892
vn -0.7187 0.1249 0.6840
vn 0.6869 -0.0574 -0.7245
vn -0.0839 0.5115 -0.8552
vn 0.1152 0.2397 0.9640
vn 0.2226 0.9749 -0.0001
vn -0.6008 0.2810 0.7484
vn -0.9371 -0.1810 0.2984
vn 0.8618 0.3985 -0.3137
vn 0.9960 0.0045 0.0894
s off
f 1/1/1 2/2/1 3/3/1
f 4/4/2 5/5/2 6/6/2
f 7/7/3 8/8/3 9/9/3
f 10/10/4 11/11/4 12/12/4
f 13/13/5 7/7/5 9/9/5
f 14/14/6 4/4/6 15/15/6
f 3/3/7 2/2/7 16/16/7
f 17/17/8 11/11/8 10/10/8
f 10/10/9 18/18/9 19/19/9
f 20/20/10 21/21/10 22/22/10
f 16/16/11 2/2/11 7/7/11
f 20/20/12 18/18/12 23/23/12
f 13/13/13 16/16/13 7/7/13
f 24/24/14 22/22/14 13/13/14
f 6/6/15 25/25/15 21/21/15
f 25/25/16 26/26/16 27/27/16
f 27/27/17 1/1/17 3/3/17
f 17/17/18 28/28/18 29/29/18
f 18/18/19 10/10/19 30/30/19
f 28/28/20 17/17/20 10/10/20
f 8/8/21 31/31/21 32/32/21
f 7/7/22 2/2/22 33/33/22
f 15/15/23 4/4/23 6/6/23
f 31/31/24 8/8/24 34/34/24
f 2/2/25 1/1/25 35/35/25
f 7/7/26 34/34/26 8/8/26
f 36/36/27 29/29/27 32/32/27
f 6/6/28 5/5/28 26/26/28
f 21/21/29 25/25/29 3/3/29
f 19/19/30 18/18/30 22/22/30
f 21/21/31 16/16/31 13/13/31
f 29/29/32 24/24/32 9/9/32
f 28/28/33 19/19/33 24/24/33
f 23/23/34 30/30/34 15/15/34
f 30/30/35 12/12/35 14/14/35
f 30/30/36 10/10/36 12/12/36
f 18/18/37 20/20/37 22/22/37
f 6/6/38 20/20/38 23/23/38
f 9/9/39 24/24/39 13/13/39
f 20/20/40 6/6/40 21/21/40
f 3/3/41 25/25/41 27/27/41
f 36/36/42 17/17/42 29/29/42
f 23/23/43 18/18/43 30/30/43
f 19/19/44 28/28/44 10/10/44
f 9/9/45 8/8/45 32/32/45
f 34/34/46 7/7/46 33/33/46
f 33/33/47 2/2/47 35/35/47
f 31/31/48 36/36/48 32/32/48
f 25/25/49 6/6/49 26/26/49
f 16/16/50 21/21/50 3/3/50
f 24/24/51 19/19/51 22/22/51
f 22/22/52 21/21/52 13/13/52
f 32/32/53 29/29/53 9/9/53
f 29/29/54 28/28/54 24/24/54
f 6/6/55 23/23/55 15/15/55
f 15/15/56 30/30/56 14/14/56
