# Blender v2.79 (sub 0) OBJ File: ''
# www.blender.org
o Rock_5
v 0.815099 0.000014 -0.473039
v 0.535545 0.426935 -0.636907
v 0.784485 0.519735 -0.368896
v 0.530648 0.000034 0.706778
v 0.718771 0.000032 0.514237
v 0.554076 0.476952 0.317752
v -0.020853 0.315976 -0.657333
v -0.294948 0.183596 -0.721946
v -0.429418 0.448984 -0.281874
v -0.333513 0.376908 0.582356
v -0.411070 0.000026 0.652466
v -0.227607 0.034935 0.747612
v -0.407490 0.777689 -0.206101
v 0.189041 0.000031 0.679461
v 0.429525 0.396823 0.621989
v 0.255346 0.860375 -0.322004
v -0.821707 0.000017 0.308542
v -0.376399 0.750836 0.406396
v -0.641550 0.400921 0.224595
v 0.219008 0.873593 0.183674
v 0.334893 0.961137 -0.066256
v -0.447627 0.879463 0.044970
v 0.088840 0.613894 0.362074
v -0.729687 0.524556 -0.006207
v 0.768440 0.522963 0.112880
v 0.894876 0.000025 0.054149
v 0.863644 0.000019 -0.238586
v -0.717830 0.200469 0.266433
v -0.947170 0.232223 -0.082004
v -0.179018 0.386535 0.679041
v -0.607096 0.000003 -0.550771
v -0.518507 0.153041 -0.436858
v 0.511187 0.000007 -0.766681
v -0.135293 0.000000 -0.884444
v 0.745039 0.000011 -0.647078
v -0.991683 0.000008 -0.118410
vt 0.769326 0.792953
vt 0.762824 0.777533
vt 0.774624 0.777311
vt 0.782202 0.769015
vt 0.831333 0.732999
vt 0.814633 0.732646
vt 0.768643 0.742266
vt 0.764109 0.734007
vt 0.778921 0.727758
vt 0.801347 0.780257
vt 0.801971 0.792438
vt 0.795853 0.790913
vt 0.788656 0.729944
vt 0.829826 0.717604
vt 0.818883 0.723363
vt 0.788601 0.750861
vt 0.818568 0.792438
vt 0.805712 0.768120
vt 0.816068 0.778695
vt 0.799907 0.727308
vt 0.795845 0.751438
vt 0.815367 0.761759
vt 0.808400 0.721049
vt 0.785907 0.716944
vt 0.812719 0.741811
vt 0.828434 0.747023
vt 0.782202 0.758993
vt 0.817031 0.785466
vt 0.829869 0.783190
vt 0.816343 0.708618
vt 0.762599 0.722051
vt 0.768570 0.724599
vt 0.756461 0.789876
vt 0.756461 0.738918
vt 0.763875 0.792370
vt 0.770542 0.706780
vn 0.6885 0.1813 -0.7022
vn 0.6307 0.4717 0.6162
vn -0.2520 0.7927 -0.5551
vn -0.4830 0.2552 0.8376
vn -0.6219 0.2151 -0.7530
vn -0.0783 0.1892 0.9788
vn 0.3926 0.6931 -0.6046
vn -0.6191 0.2649 0.7392
vn -0.7320 0.2196 0.6450
vn -0.0555 0.9501 0.3070
vn -0.0796 0.5517 -0.8302
vn 0.2209 0.4746 0.8520
vn -0.2099 0.5878 -0.7813
vn -0.7042 0.6117 -0.3605
vn 0.4309 0.6724 0.6019
vn 0.9641 0.2447 -0.1029
vn 0.9745 0.0978 -0.2018
vn -0.7133 0.4774 0.5130
vn -0.5175 0.3150 0.7956
vn -0.6792 0.4703 0.5635
vn -0.6194 0.6669 -0.4142
vn -0.0231 0.2920 -0.9562
vn 0.8492 0.3081 0.4288
vn -0.5639 0.2153 -0.7973
vn 0.8415 0.4210 -0.3387
vn -0.1065 0.6055 -0.7887
vn -0.5938 0.2345 -0.7697
vn 0.8453 0.4252 0.3235
vn 0.7069 0.7071 0.0188
vn -0.8273 0.4576 0.3259
vn -0.1715 0.9336 -0.3145
vn -0.4904 0.5418 -0.6826
vn -0.7662 0.3970 0.5053
vn 0.0434 0.7941 0.6063
vn 0.1727 0.1655 0.9710
vn -0.5263 0.2323 0.8179
vn -0.0637 0.9362 0.3457
vn -0.6308 0.2140 -0.7458
vn 0.5742 0.6523 0.4947
vn 0.9869 0.1583 0.0318
vn -0.9225 0.1192 0.3672
vn 0.2624 0.6653 0.6990
vn -0.6850 0.3892 0.6159
vn -0.7141 0.4812 -0.5084
vn 0.1508 0.5404 -0.8278
vn 0.4423 0.2376 -0.8648
vn -0.5479 0.6799 -0.4874
vn 0.6793 0.0823 0.7292
vn 0.4564 0.7703 -0.4454
vn -0.7013 0.4815 0.5257
vn -0.1504 0.9076 -0.3920
vn -0.4878 0.5157 -0.7043
vn -0.7419 0.4155 0.5262
vn 0.2950 0.8873 0.3545
vn 0.0915 0.0882 0.9919
s off
f 1/1/1 2/2/1 3/3/1
f 4/4/2 5/5/2 6/6/2
f 7/7/3 8/8/3 9/9/3
f 10/10/4 11/11/4 12/12/4
f 13/13/5 7/7/5 9/9/5
f 14/14/6 4/4/6 15/15/6
f 3/3/7 2/2/7 16/16/7
f 17/17/8 11/11/8 10/10/8
f 10/10/9 18/18/9 19/19/9
f 20/20/10 21/21/10 22/22/10
f 16/16/11 2/2/11 7/7/11
f 20/20/12 18/18/12 23/23/12
f 13/13/13 16/16/13 7/7/13
f 24/24/14 22/22/14 13/13/14
f 6/6/15 25/25/15 21/21/15
f 25/25/16 26/26/16 27/27/16
f 27/27/17 1/1/17 3/3/17
f 17/17/18 28/28/18 29/29/18
f 18/18/19 10/10/19 30/30/19
f 28/28/20 17/17/20 10/10/20
f 8/8/21 31/31/21 32/32/21
f 7/7/22 2/2/22 33/33/22
f 15/15/23 4/4/23 6/6/23
f 31/31/24 8/8/24 34/34/24
f 2/2/25 1/1/25 35/35/25
f 7/7/26 34/34/26 8/8/26
f 36/36/27 29/29/27 32/32/27
f 6/6/28 5/5/28 26/26/28
f 21/21/29 25/25/29 3/3/29
f 19/19/30 18/18/30 22/22/30
f 21/21/31 16/16/31 13/13/31
f 29/29/32 24/24/32 9/9/32
f 28/28/33 19/19/33 24/24/33
f 23/23/34 30/30/34 15/15/34
f 30/30/35 12/12/35 14/14/35
f 30/30/36 10/10/36 12/12/36
f 18/18/37 20/20/37 22/22/37
f 6/6/12 20/20/12 23/23/12
f 9/9/38 24/24/38 13/13/38
f 20/20/39 6/6/39 21/21/39
f 3/3/40 25/25/40 27/27/40
f 36/36/41 17/17/41 29/29/41
f 23/23/42 18/18/42 30/30/42
f 19/19/43 28/28/43 10/10/43
f 9/9/44 8/8/44 32/32/44
f 34/34/45 7/7/45 33/33/45
f 33/33/46 2/2/46 35/35/46
f 31/31/47 36/36/47 32/32/47
f 25/25/48 6/6/48 26/26/48
f 16/16/49 21/21/49 3/3/49
f 24/24/50 19/19/50 22/22/50
f 22/22/51 21/21/51 13/13/51
f 32/32/52 29/29/52 9/9/52
f 29/29/53 28/28/53 24/24/53
f 6/6/54 23/23/54 15/15/54
f 15/15/55 30/30/55 14/14/55
