# Blender v2.79 (sub 0) OBJ File: ''
# www.blender.org
o rock_small_61
v 0.051548 0.560795 0.480155
v -0.513882 0.000307 0.273856
v -0.262901 0.000221 0.376314
v -0.489407 0.000318 -0.223256
v -0.630538 0.000362 -0.165106
v -0.272024 0.559863 -0.012580
v 0.448054 0.000000 0.077377
v 0.433251 0.289092 0.106764
v 0.287625 0.000044 0.291406
v 0.036083 0.262373 -0.132067
v -0.050536 0.571881 -0.136869
v 0.137741 0.285864 0.219536
v 0.432252 0.174470 -0.302424
v 0.073122 0.000110 0.400761
v 0.018900 0.000156 -0.340933
v -0.219980 0.000235 -0.363580
v 0.333310 0.000048 -0.215000
v 0.187386 0.000101 -0.334357
vt 0.736993 0.628973
vt 0.682437 0.654616
vt 0.691999 0.640608
vt 0.680844 0.696649
vt 0.680753 0.685839
vt 0.726636 0.673629
vt 0.796643 0.655060
vt 0.774025 0.661731
vt 0.750375 0.742782
vt 0.799772 0.698896
vt 0.736993 0.675003
vt 0.752939 0.649708
vt 0.735230 0.707435
vt 0.705437 0.628973
vt 0.777900 0.690734
vt 0.680198 0.717854
vt 0.796643 0.683690
vt 0.735230 0.685839
vn -0.3776 0.0405 0.9251
vn -0.3412 0.4444 -0.8283
vn 0.8000 -0.0200 0.5997
vn 0.9244 0.2543 -0.2843
vn -0.8471 0.4814 0.2252
vn 0.0971 0.9583 -0.2687
vn -0.7038 0.5403 0.4612
vn 0.9464 -0.0093 0.3228
vn 0.0887 0.3444 -0.9346
vn 0.9276 0.0845 -0.3640
vn -0.4149 0.4390 -0.7969
vn 0.3250 0.3874 0.8627
vn -0.0404 0.9989 0.0246
vn 0.5071 -0.5985 -0.6202
vn -0.0327 0.9978 -0.0572
vn -0.1902 0.6193 -0.7618
vn -0.0719 -0.1426 0.9872
vn 0.8924 0.2439 -0.3796
vn 0.8883 -0.4428 0.1219
vn -0.4528 0.4628 -0.7621
vn 0.4124 0.4196 0.8086
vn 0.8985 0.4155 -0.1412
vn 0.0387 0.1271 -0.9911
s off
f 1/1/1 2/2/1 3/3/1
f 4/4/2 5/5/2 6/6/2
f 7/7/3 8/8/3 9/9/3
f 10/10/4 11/11/4 12/12/4
f 6/6/5 5/5/5 2/2/5
f 10/10/6 8/8/6 13/13/6
f 1/1/7 6/6/7 2/2/7
f 14/14/8 12/12/8 1/1/8
f 15/15/9 16/16/9 11/11/9
f 8/8/10 7/7/10 17/17/10
f 11/11/11 16/16/11 4/4/11
f 9/9/12 8/8/12 12/12/12
f 11/11/13 6/6/13 1/1/13
f 13/13/14 17/17/14 18/18/14
f 8/8/15 10/10/15 12/12/15
f 15/15/16 10/10/16 13/13/16
f 3/3/17 14/14/17 1/1/17
f 10/10/18 15/15/18 11/11/18
f 13/13/19 8/8/19 17/17/19
f 6/6/20 11/11/20 4/4/20
f 14/14/21 9/9/21 12/12/21
f 12/12/22 11/11/22 1/1/22
f 15/15/23 13/13/23 18/18/23
