# Blender v2.79 (sub 0) OBJ File: 'terreno.blend'
# www.blender.org
mtllib terreno.mtl
o Plane.001
v 1.486141 0.001841 5.777946
v -7.032133 0.001841 5.748486
v 1.486141 0.001838 15.645730
v -7.032133 0.001838 15.645730
v -13.491770 0.526372 15.645730
v -13.491770 0.001841 5.701752
v 19.964109 0.001841 -1.194696
v 19.964109 0.001841 -2.134960
v 19.964109 -0.048970 -1.194696
v 19.964109 -0.048970 -2.134960
v 1.486141 0.001841 5.397676
v -7.032133 0.001841 5.408226
v 1.486141 -0.048971 5.397676
v -7.032133 -0.048970 5.408226
v -7.032133 -0.048970 5.748486
v 1.486141 -0.048971 5.777946
v -13.491770 -0.048970 5.701752
v -13.491770 0.001841 5.361493
v -13.491770 -0.048970 5.361493
v 9.984963 -0.048971 5.305809
v 9.984963 0.001841 5.305809
v 10.459952 -0.048971 5.305809
v 10.459952 -0.048971 5.756024
v 10.084993 -0.048971 5.756024
v 10.459952 0.001841 5.756024
v 10.084993 0.001841 5.756024
v 15.712634 0.217546 15.645730
v 4.653020 0.553457 15.645730
v 13.202727 0.001843 -5.200952
v 1.486141 0.001842 -5.200953
v -7.032132 0.001842 -8.750007
v -13.491770 0.910482 -8.750007
v 19.964109 0.940066 -8.750007
v 17.597410 1.918859 -7.421383
v 16.555929 0.001841 0.192715
v 10.459952 0.001841 5.305809
v 13.539835 0.001843 -5.200951
v 16.555929 -0.048970 0.192715
v 16.555929 -0.048970 0.599488
v 16.555929 0.001841 0.599488
v 19.964109 0.940127 15.645730
v 16.099825 0.690851 15.645730
v 17.067961 1.486379 -10.959240
v 9.679434 0.001843 -9.867583
v 10.624333 0.001843 -14.380780
v 16.555929 0.001843 -14.380780
v 9.265078 0.001843 -9.867585
v 1.486142 0.775010 -9.867585
v 1.486142 0.001843 -14.380780
v 10.220702 0.001843 -14.380780
v -7.032132 0.562028 -11.612450
v -7.032132 1.566613 -14.380780
v -13.491770 1.188898 -11.612450
v -13.491770 1.842267 -14.380780
v 19.964109 1.001411 -14.380780
v 19.964109 0.831963 -11.612450
v 10.220702 -0.074294 -14.381000
v 9.265078 -0.074294 -9.867805
v 10.624333 -0.074294 -14.381000
v 9.679434 -0.074294 -9.867804
v 13.539835 -0.074294 -5.201170
v 13.202727 -0.074294 -5.201171
v 10.459952 -0.074296 5.305721
v 9.984963 -0.074296 5.305721
vt 0.232655 0.749525
vt 0.339908 0.749525
vt 0.232655 1.000000
vt 0.339908 1.000000
vt 0.421241 1.000000
vt 0.421241 0.749525
vt 0.000000 0.749525
vt 0.000000 0.732787
vt 0.000000 0.749525
vt 0.000000 0.732787
vt 0.232655 0.732787
vt 0.339908 0.732787
vt 0.232655 0.732787
vt 0.339908 0.732787
vt 0.339908 0.749525
vt 0.232655 0.749525
vt 0.421241 0.749525
vt 0.421241 0.732787
vt 0.421241 0.732787
vt 0.125647 0.732787
vt 0.125647 0.732787
vt 0.114628 0.732787
vt 0.114628 0.749525
vt 0.125647 0.749525
vt 0.114628 0.749525
vt 0.125647 0.749525
vt 0.114628 1.000000
vt 0.125647 1.000000
vt 0.125647 0.640220
vt 0.232655 0.640220
vt 0.339908 0.640220
vt 0.421241 0.640220
vt 0.000000 0.640220
vt 0.042912 0.640220
vt 0.042912 0.732787
vt 0.114628 0.732787
vt 0.114628 0.640220
vt 0.042912 0.732787
vt 0.042912 0.749525
vt 0.042912 0.749525
vt 0.000000 1.000000
vt 0.042912 1.000000
vt 0.042912 0.598006
vt 0.114628 0.598006
vt 0.114628 0.557180
vt 0.042912 0.557180
vt 0.125647 0.598006
vt 0.232655 0.598006
vt 0.232655 0.557180
vt 0.125647 0.557180
vt 0.339908 0.598006
vt 0.339908 0.557180
vt 0.421241 0.598006
vt 0.421241 0.557180
vt 0.000000 0.557180
vt 0.000000 0.598006
vt 0.125647 0.557180
vt 0.125647 0.598006
vt 0.114628 0.557180
vt 0.114628 0.598006
vt 0.114628 0.640220
vt 0.125647 0.640220
vt 0.114628 0.732787
vt 0.125647 0.732787
vn 0.0000 1.0000 0.0000
vn 0.0808 0.9953 -0.0525
vn -1.0000 0.0000 0.0000
vn 0.0012 0.0000 1.0000
vn 0.0035 0.0000 -1.0000
vn 0.0072 0.0000 -1.0000
vn 1.0000 0.0000 0.0000
vn -0.0072 0.0000 1.0000
vn 0.0108 0.0000 0.9999
vn 0.0000 0.0000 -1.0000
vn -0.0025 0.0000 -1.0000
vn 0.0000 0.9998 -0.0218
vn 0.0303 0.9988 -0.0390
vn -0.1716 0.9852 0.0000
vn -0.0001 0.9984 -0.0558
vn 0.1390 0.9882 0.0636
vn 0.4388 0.8897 0.1262
vn 0.1798 0.9478 0.2632
vn -0.3342 0.9238 0.1869
vn 0.5640 0.0000 0.8258
vn 0.6426 0.0000 0.7662
vn -0.4658 0.0000 -0.8849
vn -0.6458 0.0000 -0.7635
vn -0.0293 0.9980 -0.0556
vn -0.0643 0.9968 -0.0476
vn -0.7193 0.5884 0.3692
vn -0.0397 0.9981 -0.0469
vn -0.4458 0.8941 -0.0426
vn -0.1744 0.9741 0.1443
vn -0.2344 0.9041 -0.3572
vn 0.0976 0.9818 0.1627
vn 0.0000 0.9856 -0.1689
vn 0.0989 0.9949 0.0209
vn -0.0679 0.9843 0.1631
vn -0.0637 0.9794 0.1917
vn 0.1702 0.9263 0.3361
vn 0.0099 0.9856 -0.1688
vn 0.1367 0.9722 0.1903
vn 0.0961 0.9907 0.0964
vn 0.0415 0.9724 0.2295
vn 0.0908 0.9361 0.3397
vn -0.2636 0.8987 -0.3505
vn 0.2327 0.9707 0.0594
vn 0.3650 0.9303 -0.0351
vn 0.1864 0.9715 -0.1467
vn 0.9783 -0.0006 0.2071
vn 0.0000 -0.0029 1.0000
vn -0.9788 0.0006 -0.2049
vn -0.7705 -0.0018 0.6374
vn 0.7643 0.0019 -0.6449
vn -0.9596 0.0003 -0.2813
vn -0.9596 0.0008 -0.2813
vn 0.9562 -0.0009 0.2928
vn 0.9562 -0.0003 0.2928
usemtl Material.002
s off
f 1/1/1 2/2/1 3/3/1
f 2/2/1 4/4/1 3/3/1
f 5/5/2 4/4/2 6/6/2
f 4/4/1 2/2/1 6/6/1
f 7/7/3 8/8/3 9/9/3
f 8/8/3 10/10/3 9/9/3
f 11/11/4 12/12/4 13/13/4
f 12/12/4 14/14/4 13/13/4
f 2/2/5 1/1/5 15/15/5
f 1/1/5 16/16/5 15/15/5
f 13/13/1 14/14/1 16/16/1
f 14/14/1 15/15/1 16/16/1
f 6/6/6 2/2/6 17/17/6
f 2/2/6 15/15/6 17/17/6
f 18/18/7 6/6/7 19/19/7
f 6/6/7 17/17/7 19/19/7
f 12/12/8 18/18/8 14/14/8
f 18/18/8 19/19/8 14/14/8
f 17/17/1 15/15/1 19/19/1
f 15/15/1 14/14/1 19/19/1
f 13/13/9 20/20/9 11/11/9
f 20/20/9 21/21/9 11/11/9
f 22/22/1 20/20/1 23/23/1
f 20/20/1 24/24/1 23/23/1
f 16/16/1 24/24/1 13/13/1
f 24/24/1 20/20/1 13/13/1
f 23/23/10 24/24/10 25/25/10
f 24/24/10 26/26/10 25/25/10
f 1/1/11 26/26/11 16/16/11
f 26/26/11 24/24/11 16/16/11
f 25/25/12 26/26/12 27/27/12
f 26/26/13 28/28/13 27/27/13
f 3/3/14 28/28/14 1/1/14
f 28/28/15 26/26/15 1/1/15
f 21/21/1 29/29/1 11/11/1
f 29/29/1 30/30/1 11/11/1
f 11/11/1 30/30/1 12/12/1
f 30/30/1 31/31/1 12/12/1
f 12/12/1 31/31/1 18/18/1
f 31/31/16 32/32/16 18/18/16
f 33/33/17 34/34/17 8/8/17
f 34/34/18 35/35/18 8/8/18
f 36/36/1 35/35/1 37/37/1
f 35/35/19 34/34/19 37/37/19
f 8/8/20 35/35/20 10/10/20
f 35/35/20 38/38/20 10/10/20
f 22/22/21 38/38/21 36/36/21
f 38/38/21 35/35/21 36/36/21
f 10/10/1 38/38/1 9/9/1
f 38/38/1 39/39/1 9/9/1
f 23/23/1 39/39/1 22/22/1
f 39/39/1 38/38/1 22/22/1
f 9/9/22 39/39/22 7/7/22
f 39/39/22 40/40/22 7/7/22
f 25/25/23 40/40/23 23/23/23
f 40/40/23 39/39/23 23/23/23
f 7/7/24 40/40/24 41/41/24
f 40/40/25 42/42/25 41/41/25
f 27/27/26 42/42/26 25/25/26
f 42/42/27 40/40/27 25/25/27
f 34/34/28 43/43/28 37/37/28
f 43/43/29 44/44/29 37/37/29
f 45/45/1 44/44/1 46/46/1
f 44/44/30 43/43/30 46/46/30
f 29/29/1 47/47/1 30/30/1
f 47/47/31 48/48/31 30/30/31
f 49/49/32 48/48/32 50/50/32
f 48/48/33 47/47/33 50/50/33
f 30/30/34 48/48/34 31/31/34
f 48/48/35 51/51/35 31/31/35
f 52/52/36 51/51/36 49/49/36
f 51/51/37 48/48/37 49/49/37
f 31/31/38 51/51/38 32/32/38
f 51/51/39 53/53/39 32/32/39
f 54/54/40 53/53/40 52/52/40
f 53/53/41 51/51/41 52/52/41
f 46/46/42 43/43/42 55/55/42
f 43/43/43 56/56/43 55/55/43
f 33/33/44 56/56/44 34/34/44
f 56/56/45 43/43/45 34/34/45
f 50/50/46 47/47/46 57/57/46
f 47/47/46 58/58/46 57/57/46
f 45/45/47 50/50/47 59/59/47
f 50/50/47 57/57/47 59/59/47
f 44/44/48 45/45/48 60/60/48
f 45/45/48 59/59/48 60/60/48
f 57/57/1 58/58/1 59/59/1
f 58/58/1 60/60/1 59/59/1
f 37/37/49 44/44/49 61/61/49
f 44/44/49 60/60/49 61/61/49
f 47/47/50 29/29/50 58/58/50
f 29/29/50 62/62/50 58/58/50
f 61/61/1 60/60/1 62/62/1
f 60/60/1 58/58/1 62/62/1
f 36/36/51 37/37/51 63/63/51
f 37/37/52 61/61/52 63/63/52
f 29/29/53 21/21/53 62/62/53
f 21/21/54 64/64/54 62/62/54
f 63/63/1 61/61/1 64/64/1
f 61/61/1 62/62/1 64/64/1
o Plane1.001
v -13.173780 -0.016617 16.702410
v 18.637461 -0.016616 16.702410
v -13.173780 -0.017787 -14.382350
v 18.637461 -0.017786 -14.382350
vt 1.000000 0.308188
vt 0.555847 0.308188
vt 1.000000 0.000000
vt 0.555847 0.000000
vn -0.0000 1.0000 -0.0000
usemtl Material.002
s off
f 65/65/55 66/66/55 67/67/55
f 66/66/55 68/68/55 67/67/55
