# Blender v2.79 (sub 0) OBJ File: ''
# www.blender.org
o rock_small__12
v 0.077006 0.219278 -0.160121
v 0.461697 0.000015 -0.091450
v 0.225382 0.000012 -0.223020
v 0.398789 0.000013 0.234324
v 0.413670 0.000014 0.051049
v 0.334350 0.212057 0.038280
v -0.426854 0.000001 -0.265720
v -0.356891 0.154154 -0.263480
v -0.352419 0.000003 -0.502580
v -0.003235 0.164643 0.264535
v 0.164599 0.194511 0.200500
v -0.245814 0.193980 -0.439621
v -0.304684 0.135187 0.196738
v 0.142505 0.000011 -0.357240
v 0.081057 0.000008 0.443848
v 0.179182 0.000009 0.381589
v -0.453753 0.000000 0.133742
v -0.334590 0.000001 0.358628
vt 0.760379 0.730994
vt 0.782187 0.753032
vt 0.738494 0.774764
vt 0.738724 0.752879
vt 0.760379 0.785706
vt 0.716762 0.753032
vt 0.793206 0.730994
vt 0.716762 0.785630
vt 0.760302 0.709263
vt 0.760532 0.731148
vt 0.738417 0.753032
vt 0.760379 0.753109
vt 0.760532 0.709263
vt 0.793129 0.709263
vt 0.716762 0.730918
vt 0.738494 0.785706
vt 0.738417 0.774917
vt 0.760532 0.730918
vn 0.4208 0.5016 -0.7559
vn 0.9324 0.3534 0.0757
vn -0.8741 0.4007 -0.2747
vn -0.1412 0.9859 0.0897
vn 0.8877 0.3501 0.2992
vn -0.1090 0.9926 0.0533
vn 0.4759 0.6490 -0.5936
vn 0.4577 0.6661 -0.5889
vn 0.4130 0.6370 0.6509
vn -0.9086 0.4132 -0.0612
vn 0.4317 0.6318 0.6438
vn -0.7633 0.5364 -0.3601
vn -0.0305 0.9967 0.0759
vn -0.7048 0.6031 0.3735
vn -0.1848 0.9772 0.1044
vn -0.2254 0.6626 0.7143
vn 0.6884 0.5878 -0.4251
vn 0.1107 0.7575 0.6434
vn -0.6925 0.7133 0.1080
vn 0.4749 0.6709 0.5695
vn 0.2784 0.1547 -0.9479
vn -0.1709 0.9793 0.1088
vn -0.1275 0.7728 0.6217
s off
f 1/1/1 2/2/1 3/3/1
f 4/4/2 5/5/2 6/6/2
f 7/7/3 8/8/3 9/9/3
f 10/10/4 11/11/4 12/12/4
f 6/6/5 5/5/5 2/2/5
f 10/10/6 8/8/6 13/13/6
f 1/1/7 6/6/7 2/2/7
f 14/14/8 12/12/8 1/1/8
f 15/15/9 16/16/9 11/11/9
f 8/8/10 7/7/10 17/17/10
f 11/11/11 16/16/11 4/4/11
f 9/9/12 8/8/12 12/12/12
f 11/11/13 6/6/13 1/1/13
f 13/13/14 17/17/14 18/18/14
f 8/8/15 10/10/15 12/12/15
f 15/15/16 10/10/16 13/13/16
f 3/3/17 14/14/17 1/1/17
f 10/10/18 15/15/18 11/11/18
f 13/13/19 8/8/19 17/17/19
f 6/6/20 11/11/20 4/4/20
f 14/14/21 9/9/21 12/12/21
f 12/12/22 11/11/22 1/1/22
f 15/15/23 13/13/23 18/18/23
