# Blender v2.79 (sub 0) OBJ File: ''
# www.blender.org
o rock_small__3
v -0.465600 0.412932 -0.219908
v -0.054088 0.000000 -0.423066
v -0.237750 0.000001 -0.301305
v 0.331848 0.000006 -0.280067
v 0.323747 0.000003 -0.431248
v 0.147441 0.438314 -0.332268
v -0.265720 0.000009 0.123285
v -0.251645 0.215812 0.213767
v -0.508509 0.000006 0.056158
v 0.287503 0.232773 0.124445
v 0.326331 0.398297 0.066836
v -0.318788 0.217859 0.048859
v 0.082082 0.198500 0.453391
v -0.378017 0.000004 -0.084108
v 0.389240 0.000015 0.214051
v 0.487763 0.000013 0.037336
v -0.019365 0.000015 0.354746
v 0.123525 0.000016 0.379098
vt 0.765726 0.759652
vt 0.699516 0.729295
vt 0.700416 0.719503
vt 0.742149 0.759674
vt 0.742871 0.766554
vt 0.740345 0.713988
vt 0.742871 0.765033
vt 0.753454 0.762198
vt 0.759698 0.759652
vt 0.712469 0.752329
vt 0.720309 0.709183
vt 0.765804 0.709183
vt 0.753454 0.743265
vt 0.701873 0.710521
vt 0.702972 0.753944
vt 0.699167 0.746503
vt 0.743829 0.749237
vt 0.743651 0.743824
vn -0.5472 -0.1392 -0.8254
vn 0.9227 0.3823 -0.0495
vn -0.2485 -0.3607 0.8990
vn -0.1243 0.3520 0.9277
vn -0.0212 0.2121 -0.9770
vn -0.0158 0.9955 0.0939
vn -0.1843 0.2799 -0.9422
vn -0.8883 -0.0379 0.4577
vn 0.8324 0.3030 0.4641
vn -0.6625 -0.2525 0.7052
vn 0.8344 0.3685 -0.4099
vn -0.7147 0.6324 0.2988
vn -0.0211 0.9938 0.1091
vn -0.1558 -0.3746 0.9140
vn -0.0275 0.9993 0.0236
vn 0.7097 0.5009 0.4954
vn -0.7913 -0.3359 -0.5110
vn -0.0517 0.3390 0.9393
vn -0.5837 -0.1020 0.8055
vn 0.8747 0.3252 -0.3594
vn -0.6237 0.5237 -0.5803
vn -0.2216 0.7276 0.6492
vn 0.5166 -0.2034 0.8317
s off
f 1/1/1 2/2/1 3/3/1
f 4/4/2 5/5/2 6/6/2
f 7/7/3 8/8/3 9/9/3
f 10/10/4 11/11/4 12/12/4
f 6/6/5 5/5/5 2/2/5
f 10/10/6 8/8/6 13/13/6
f 1/1/7 6/6/7 2/2/7
f 14/14/8 12/12/8 1/1/8
f 15/15/9 16/16/9 11/11/9
f 8/8/10 7/7/10 17/17/10
f 11/11/11 16/16/11 4/4/11
f 9/9/12 8/8/12 12/12/12
f 11/11/13 6/6/13 1/1/13
f 13/13/14 17/17/14 18/18/14
f 8/8/15 10/10/15 12/12/15
f 15/15/16 10/10/16 13/13/16
f 3/3/17 14/14/17 1/1/17
f 10/10/18 15/15/18 11/11/18
f 13/13/19 8/8/19 17/17/19
f 6/6/20 11/11/20 4/4/20
f 14/14/21 9/9/21 12/12/21
f 12/12/22 11/11/22 1/1/22
f 15/15/23 13/13/23 18/18/23
