# Blender v2.79 (sub 0) OBJ File: ''
# www.blender.org
o rock_small__22
v 0.189593 0.166156 -0.208389
v 0.341722 0.000011 -0.077219
v 0.302023 0.000011 -0.256050
v 0.150917 0.000007 0.348369
v 0.242755 0.000008 0.243585
v 0.200262 0.160681 0.199993
v -0.247588 0.000002 -0.262386
v -0.208189 0.116809 -0.226874
v -0.088668 0.000005 -0.363084
v -0.107318 0.124754 0.185162
v 0.023714 0.147386 0.222011
v -0.057757 0.146987 -0.274505
v -0.213881 0.102436 0.060556
v 0.239223 0.000010 -0.357759
v -0.137029 0.000002 0.332328
v -0.049210 0.000003 0.338772
v -0.272675 0.000001 -0.047059
v -0.307896 -0.000000 0.142547
vt 0.747032 0.721480
vt 0.749150 0.689050
vt 0.750912 0.670817
vt 0.741638 0.661086
vt 0.755615 0.724464
vt 0.749150 0.677627
vt 0.697730 0.725809
vt 0.703944 0.722444
vt 0.714333 0.736971
vt 0.715868 0.678438
vt 0.730248 0.674836
vt 0.720286 0.727981
vt 0.703858 0.691518
vt 0.754190 0.661086
vt 0.711032 0.662181
vt 0.720371 0.661680
vt 0.695635 0.702629
vt 0.692396 0.682190
vn 0.7912 0.5858 -0.1756
vn 0.7035 0.3534 0.6166
vn -0.4904 0.4007 -0.7739
vn -0.1779 0.9836 0.0284
vn 0.9067 0.3157 0.2797
vn -0.2531 0.9665 0.0433
vn 0.7416 0.6708 -0.0104
vn 0.1382 0.6847 -0.7156
vn -0.0564 0.6370 0.7688
vn -0.9315 0.3472 -0.1085
vn -0.0371 0.6318 0.7743
vn -0.3507 0.5364 -0.7677
vn -0.0732 0.9972 0.0153
vn -0.7842 0.6031 -0.1457
vn -0.1883 0.9817 0.0272
vn -0.6312 0.6498 0.4234
vn 0.6884 0.5878 -0.4250
vn -0.2947 0.7575 0.5826
vn -0.8706 0.4920 0.0074
vn 0.0418 0.6709 0.7404
vn 0.0139 0.5140 -0.8577
vn -0.0806 0.9967 0.0124
vn -0.4717 0.7728 0.4247
s off
f 1/1/1 2/2/1 3/3/1
f 4/4/2 5/5/2 6/6/2
f 7/7/3 8/8/3 9/9/3
f 10/10/4 11/11/4 12/12/4
f 6/6/5 5/5/5 2/2/5
f 10/10/6 8/8/6 13/13/6
f 1/1/7 6/6/7 2/2/7
f 14/14/8 12/12/8 1/1/8
f 15/15/9 16/16/9 11/11/9
f 8/8/10 7/7/10 17/17/10
f 11/11/11 16/16/11 4/4/11
f 9/9/12 8/8/12 12/12/12
f 11/11/13 6/6/13 1/1/13
f 13/13/14 17/17/14 18/18/14
f 8/8/15 10/10/15 12/12/15
f 15/15/16 10/10/16 13/13/16
f 3/3/17 14/14/17 1/1/17
f 10/10/18 15/15/18 11/11/18
f 13/13/19 8/8/19 17/17/19
f 6/6/20 11/11/20 4/4/20
f 14/14/21 9/9/21 12/12/21
f 12/12/22 11/11/22 1/1/22
f 15/15/23 13/13/23 18/18/23
