# Blender v2.79 (sub 0) OBJ File: ''
# www.blender.org
o rock_small__1
v 0.167236 0.219280 0.059998
v 0.138806 0.000018 0.449735
v 0.245174 0.000015 0.201057
v -0.191735 0.000015 0.420925
v -0.007900 0.000017 0.416734
v -0.003426 0.212060 0.336516
v 0.220049 0.000003 -0.452092
v 0.225072 0.154156 -0.382274
v 0.463357 0.000005 -0.402606
v -0.263445 0.164644 0.024197
v -0.182363 0.194513 0.184490
v 0.411778 0.193982 -0.290050
v -0.227254 0.135187 -0.282655
v 0.370090 0.000014 0.104715
v -0.433058 0.000008 0.126619
v -0.360966 0.000011 0.217763
v -0.180046 -0.000000 -0.437449
v -0.391372 0.000001 -0.295622
vt 0.760379 0.730994
vt 0.782187 0.753032
vt 0.738494 0.774764
vt 0.738724 0.752879
vt 0.760379 0.785706
vt 0.716762 0.753032
vt 0.793206 0.730994
vt 0.716762 0.785630
vt 0.760302 0.709263
vt 0.760532 0.731148
vt 0.738417 0.753032
vt 0.760379 0.753109
vt 0.760532 0.709263
vt 0.793129 0.709263
vt 0.716762 0.730918
vt 0.738494 0.785706
vt 0.738417 0.774917
vt 0.760532 0.730918
vn 0.7954 0.5016 0.3402
vn 0.0213 0.3534 0.9352
vn 0.1826 0.4007 -0.8978
vn -0.1039 0.9859 -0.1312
vn -0.2056 0.3501 0.9139
vn -0.0643 0.9926 -0.1029
vn 0.6397 0.6490 0.4118
vn 0.6331 0.6661 0.3942
vn -0.6046 0.6370 0.4782
vn -0.0333 0.4132 -0.9100
vn -0.5956 0.6318 0.4961
vn 0.2790 0.5364 -0.7965
vn -0.0786 0.9967 -0.0225
vn -0.4445 0.6031 -0.6623
vn -0.1230 0.9772 -0.1730
vn -0.7338 0.6626 -0.1502
vn 0.4941 0.5878 0.6406
vn -0.6285 0.7575 0.1768
vn -0.1791 0.7133 -0.6776
vn -0.5173 0.6709 0.5314
vn 0.9717 0.1547 0.1786
vn -0.1259 0.9793 -0.1587
vn -0.6316 0.7728 -0.0624
s off
f 1/1/1 2/2/1 3/3/1
f 4/4/2 5/5/2 6/6/2
f 7/7/3 8/8/3 9/9/3
f 10/10/4 11/11/4 12/12/4
f 6/6/5 5/5/5 2/2/5
f 10/10/6 8/8/6 13/13/6
f 1/1/7 6/6/7 2/2/7
f 14/14/8 12/12/8 1/1/8
f 15/15/9 16/16/9 11/11/9
f 8/8/10 7/7/10 17/17/10
f 11/11/11 16/16/11 4/4/11
f 9/9/12 8/8/12 12/12/12
f 11/11/13 6/6/13 1/1/13
f 13/13/14 17/17/14 18/18/14
f 8/8/15 10/10/15 12/12/15
f 15/15/16 10/10/16 13/13/16
f 3/3/17 14/14/17 1/1/17
f 10/10/18 15/15/18 11/11/18
f 13/13/19 8/8/19 17/17/19
f 6/6/20 11/11/20 4/4/20
f 14/14/21 9/9/21 12/12/21
f 12/12/22 11/11/22 1/1/22
f 15/15/23 13/13/23 18/18/23
